<?xml version="1.0" encoding="UTF-8"?>
<svg version="1.1" viewBox="0 0 288 288" xmlns="http://www.w3.org/2000/svg">
<g>
<svg width="288" height="288" enable-background="new 0 0 67 67" fill="#484b59" viewBox="0 0 67 67" xmlns="http://www.w3.org/2000/svg">
<path class="color000 svgShape" d="M17.7 51c.2.1.5 0 .7-.2.1-.2 0-.5-.2-.7-1.5-.8-2-2.6-1.2-4.1.8-1.5 2.6-2 4.1-1.2.2.1.5 0 .7-.2.1-.2 0-.5-.2-.7-1.9-1.1-4.4-.3-5.4 1.6-.5.9-.6 2-.3 3C16.1 49.6 16.8 50.5 17.7 51zM45.4 43.7c-.2.1-.3.4-.2.7.1.2.4.3.7.2 1.4-.8 3.3-.3 4.1 1.2.8 1.4.3 3.3-1.2 4.1-.2.1-.3.4-.2.7.1.2.4.3.7.2 1.9-1.1 2.6-3.5 1.6-5.4C49.7 43.3 47.3 42.6 45.4 43.7z"/>
<path class="color000 svgShape" d="m65.5 31.9c0-11.6-14.1-20.8-32-20.8s-32 9.1-32 20.8c0 5.7 3.5 11.1 9.7 15-0.2 4.9 3.7 8.9 8.5 8.9 4.7 0 8.5-3.8 8.5-8.5s-3.8-8.5-8.5-8.5c-2.2 0-4.1 0.8-5.6 2.2-3.9-2.6-6-5.8-6-9 0-7.7 11.7-14.2 25.5-14.2s25.5 6.5 25.5 14.2c0 3.2-2.1 6.4-5.9 9-1.5-1.4-3.5-2.3-5.8-2.3-4.7 0-8.5 3.8-8.5 8.5s3.8 8.5 8.5 8.5 8.5-3.8 8.5-8.5v-0.2c6.1-3.9 9.6-9.4 9.6-15.1zm-39.3 15.4c0 3.6-2.9 6.5-6.5 6.5s-6.5-2.9-6.5-6.5c0-1.7 0.6-3.2 1.6-4.3 1.2-1.3 2.9-2.2 4.8-2.2 3.7 0 6.6 2.9 6.6 6.5zm21.1 6.4c-3.6 0-6.5-2.9-6.5-6.5s2.9-6.5 6.5-6.5 6.5 2.9 6.5 6.5-2.9 6.5-6.5 6.5zm8.1-8.9c-0.2-0.8-0.6-1.6-1.1-2.3 4.3-2.9 6.6-6.7 6.6-10.5 0-8.8-12.6-16.2-27.5-16.2-14.8-0.1-27.4 7.3-27.4 16.1 0 3.9 2.3 7.6 6.6 10.6-0.5 0.7-0.9 1.5-1.1 2.3-5.1-3.5-8.1-8.1-8.1-12.8 0-10.5 13.2-18.8 30-18.8s30 8.2 30 18.8c0.1 4.7-2.8 9.3-8 12.8z"/>
</svg>
</g>
</svg>
