<?xml version="1.0" encoding="UTF-8"?>
<svg version="1.1" viewBox="0 0 288 288" xmlns="http://www.w3.org/2000/svg">
<g>
<svg width="288" height="288" viewBox="0 0 32 32" xmlns="http://www.w3.org/2000/svg">
<path class="color000 svgShape" d="M25.18,6.48l3.1,1.79L22.69,11.5l-2.9-1.68L16.56,8V1.51ZM15.46,8,9.31,11.5,3.72,8.27,15.46,1.5ZM3.17,9.23l5.59,3.22v7.1L3.17,22.77ZM9.31,20.5l6.15,3.55V30.5L3.72,23.73ZM16,23.09,9.87,19.55v-7.1L16,8.91l3.2,1.85,2.92,1.69v7.1l-2.92,1.69Zm7.24-3.54v-7.1l5.58-3.22V22.77l-2.67-1.54ZM16.56,30.49V24.05l3.37-1.95,2.76-1.6.13.08.2.12.24.14.17.09.72.42.35.2,0,0,3.75,2.16-1.75,1Z" fill="#52cc99"/>
</svg>
</g>
</svg>
