<?xml version="1.0" encoding="UTF-8"?>
<svg version="1.1" viewBox="0 0 288 288" xmlns="http://www.w3.org/2000/svg">
<g>
<svg width="288" height="288" viewBox="0 0 512 512" xmlns="http://www.w3.org/2000/svg">
<path class="colorBA8280 svgShape" d="M256 22.974h-27.656c-4.731 0-8.367 4.188-7.705 8.872l4.904 34.683h60.914l4.904-34.683c.662-4.685-2.974-8.872-7.705-8.872H256z" fill="#f66"/>
<path class="color965C5C svgShape" d="m222.46 44.751 3.079 21.777h60.914l3.079-21.777z" fill="#965c5c"/>
<linearGradient id="a" x1="256" x2="256" y1="475.66" y2="-13.83" gradientUnits="userSpaceOnUse">
<stop class="stopColorFFCCE0 svgShape" stop-color="#fcc" offset=".01"/>
<stop class="stopColorFFE6FA svgShape" stop-color="#ffe6e6" offset="1"/>
</linearGradient>
<path d="M328.733 181.56l.087.01c-.048-.01-.091-.026-.139-.036a170.962 170.962 0 0 0-5.371-2.581c-14.48-6.648-25.809-18.919-29.865-34.328a75.735 75.735 0 0 1-1.082-4.725c-1.135-5.801-1.559-11.743-.836-17.609 3.08-25.015 21.564-36.845 21.564-36.845H198.908s18.484 11.83 21.564 36.845c.723 5.866.299 11.809-.836 17.609a76.789 76.789 0 0 1-1.082 4.725c-4.058 15.409-15.385 27.68-29.865 34.328-1.808.83-3.598 1.691-5.371 2.581-.048.01-.091.026-.139.036l.087-.01c-56.602 28.424-94.309 88.938-89.133 157.693 6.142 81.592 73.709 146.511 155.471 149.65 92.571 3.555 168.735-70.437 168.735-162.217.001-63.499-36.48-118.448-89.606-145.126z" fill="url(#a)"/>
<path class="colorFFCCE0 svgShape" d="m312.85 59.05h-116.48c-7.289 0-13.197 5.908-13.197 13.198 0 7.289 5.908 13.197 13.197 13.197h116.48c7.289 0 13.198-5.908 13.198-13.197 0-7.29-5.909-13.198-13.198-13.198z" fill="#ff8c8c"/>
<path class="colorDB8DA5 svgShape" d="m198.91 85.445s7.582 4.887 13.846 14.958h86.492c6.264-10.071 13.846-14.958 13.846-14.958h-114.18z" fill="#db8d8d"/>
<path class="colorCC5697 svgShape" d="m384.15 333.04a128.92 128.92 0 0 0-1.703-28.852c-3.918-22.584-24.301-38.612-47.162-36.966-35.465 2.555-72.27 23.617-83.893 30.801-2.79 1.724-5.632 3.374-8.594 4.781-39.337 18.691-69.826 14.979-90.558 6.503-11.732-4.796-24.558 3.87-24.573 16.546v0.299c0 73.722 62.162 132.92 136.93 128.05 64.314-4.191 116.16-56.803 119.55-121.16z" fill="#cb3b3b"/>
<path class="colorFFF svgShape" d="M186.041 206.189s-35.918 7.771-43.749 52.925c-.852 4.907 2.501 9.619 7.404 10.492 7.724 1.376 20.066 1.479 34.174-6.28 6.333-3.482 11.892-8.19 16.729-13.561 5.931-6.581 13.164-16.51 14.123-26.594.947-9.973-7.45-18.322-17.468-18.325-3.356 0-7.208.335-11.213 1.343z" fill="#fff"/>
<circle class="colorA03774 svgShape" cx="182.97" cy="369.12" r="15.998" fill="#852020"/>
<circle class="colorA03774 svgShape" cx="244.06" cy="339.31" r="4.908" fill="#852020"/>
<circle class="colorA03774 svgShape" cx="282.23" cy="396.39" r="27.269" fill="#852020"/>
<circle class="colorA03774 svgShape" cx="332.04" cy="319.31" r="12.543" fill="#852020"/>
</svg>
</g>
</svg>
