<?xml version="1.0" encoding="UTF-8"?>
<svg clip-rule="evenodd" fill-rule="evenodd" stroke-linejoin="round" stroke-miterlimit="1.414" style="" viewBox="0 0 256 256" xmlns="http://www.w3.org/2000/svg">
<rect width="100%" height="100%" fill="none"/>
<g class="currentLayer" style="">
<title>Layer 1</title>
<rect class="" x="17.702" y="16.511" width="256" height="256" fill="none" opacity="100"/>
<path class="" d="m104.15 126.56c9.112-21.924 19.926-48.106 19.546-72.599l-1e-3 -0.065c0.046-1.467 1.165-2.534 2.599-2.555 0.091 9e-3 0.181 0.017 0.271 0.026 0.738 0.152 1.331 0.545 1.76 1.164 0.167 0.273 0.332 0.548 0.496 0.824 11.124 18.791 19.575 39.925 23.699 61.382 12.853-14.215 28.43-26.315 47.25-31.031 0.513-0.13 1.025-0.264 1.539-0.39 0.504-0.12 0.718-0.167 1.18-0.176 0.068 3e-3 0.137 6e-3 0.206 9e-3 0.227 0.03 0.226 0.037 0.45 0.082 0 0 0.317 0.11 0.471 0.177 0 0 0.306 0.181 0.451 0.284 0 0 0.2 0.178 0.294 0.272 0 0 0.214 0.273 0.31 0.416 0 0 0.14 0.275 0.199 0.416 0 0 0.091 0.31 0.124 0.468 0 0 0.029 0.302 0.033 0.454v5e-3c-0.017 0.252-0.017 0.252-0.06 0.502l-3e-3 0.011c-0.267 0.947-0.787 1.404-1.593 1.987-0.36 0.258-0.721 0.516-1.079 0.777-18.269 13.403-28.838 36.312-35.769 57.138 14.73-9.149 32.008-16.776 49.656-16.892 0.172-1e-3 0.345-1e-3 0.517 0 3.556 0.026 6.778 0.426 10.196 1.086 0.385 0.072 0.771 0.144 1.156 0.219 0.629 0.13 0.804 0.184 1.287 0.464 0 0 0.177 0.126 0.262 0.193 0 0 0.231 0.223 0.338 0.342 0 0 0.276 0.417 0.381 0.642 0 0 0.171 0.626 0.187 0.948v6e-3c-0.019 0.404-0.037 0.506-0.164 0.89l-3e-3 7e-3c-0.136 0.311-0.113 0.289-0.362 0.645l-5e-3 6e-3c-0.161 0.186-0.161 0.186-0.338 0.356l-8e-3 6e-3c-0.465 0.375-0.903 0.537-1.51 0.664-0.45 0.087-0.901 0.17-1.35 0.259-20.111 4.099-35.676 20.285-48.61 35.151-0.529 0.604-1.058 1.207-1.59 1.808-1.634 1.84-3.298 3.655-5.027 5.406 0.629-0.033 1.257-0.066 1.885-0.101 0.42-0.025 0.841-0.05 1.261-0.078 12.736-0.883 26.692-3.702 36.332-12.676l0.07-0.064c0.259-0.22 0.343-0.278 0.674-0.443l6e-3 -3e-3c0.153-0.064 0.153-0.064 0.309-0.118l5e-3 -1e-3c0.3-0.077 0.272-0.081 0.666-0.109 0.076-2e-3 0.152 3e-3 0.228 4e-3 0.396 0.043 0.495 0.067 0.865 0.214 0 0 0.754 0.494 1.025 0.844 0 0 0.31 0.579 0.397 0.893 0 0 0.057 0.398 0.061 0.599v6e-3c-0.01 0.177-0.01 0.177-0.032 0.353l-1e-3 8e-3c-0.066 0.345-0.106 0.463-0.254 0.785-0.154 0.319-0.321 0.632-0.481 0.948-0.17 0.34-0.336 0.682-0.507 1.022-0.114 0.223-0.23 0.446-0.348 0.667-10.039 18.52-32.659 26.254-51.872 30.333-4.936 1.048-16.815 3.974-21.246-1.607-7.092 4.48-15.628 4.305-23.368 1.556l-0.134-0.05c-1.351-0.544-2.435-1.525-3.155-2.784-5.042 4.994-16.063 2.603-21.512 1.584-20.083-3.753-43.208-11.792-52.728-31.583-0.042-0.09-0.041-0.089-0.082-0.18-0.115-0.277-0.111-0.274-0.191-0.587l-5e-3 -0.023c-0.026-0.145-0.026-0.145-0.043-0.291l-1e-3 -8e-3c-9e-3 -0.165-9e-3 -0.165-7e-3 -0.33l1e-3 -8e-3c0.019-0.243 0.011-0.222 0.08-0.526l2e-3 -6e-3c0.12-0.383 0.116-0.354 0.263-0.632l3e-3 -4e-3c0.225-0.345 0.295-0.424 0.606-0.694l4e-3 -3e-3c0.358-0.254 0.458-0.305 0.875-0.444l5e-3 -1e-3c0.303-0.07 0.275-0.074 0.672-0.092 0.062 0 0.125 4e-3 0.188 6e-3 0.181 0.02 0.181 0.02 0.36 0.053 0 0 0.952 0.398 1.335 0.731 0.247 0.219 0.492 0.442 0.739 0.661 10.779 9.392 26.39 11.461 40.124 12.321-3.623-3.651-6.811-7.435-10.234-11.364-0.434-0.496-0.87-0.992-1.308-1.484-12.123-13.55-27.098-26.17-45.288-29.942-0.118-0.026-0.118-0.026-0.235-0.055-0.458-0.125-0.527-0.168-0.875-0.37l-0.01-6e-3c-0.131-0.092-0.131-0.092-0.256-0.191l-8e-3 -6e-3c-0.228-0.207-0.209-0.195-0.363-0.38l-5e-3 -7e-3c-0.191-0.272-0.184-0.243-0.356-0.631l-2e-3 -6e-3c-0.134-0.404-0.153-0.511-0.166-0.936v-6e-3c0.025-0.414 0.047-0.518 0.186-0.909l2e-3 -6e-3c0.178-0.382 0.171-0.352 0.365-0.619l5e-3 -7e-3c0.164-0.184 0.163-0.184 0.344-0.351l8e-3 -6e-3c0.858-0.675 2.052-0.747 3.083-0.946 0.365-0.073 0.729-0.146 1.094-0.215 2.776-0.508 5.355-0.744 8.185-0.792 0.386-5e-3 0.771-6e-3 1.157-5e-3 15.181 0.128 30.028 5.898 43.146 13.14-6.301-17.755-15.572-35.847-31.121-47.172-0.104-0.078-0.103-0.078-0.207-0.157-0.399-0.319-0.703-0.66-0.931-1.12l-5e-3 -0.011c-0.09-0.227-0.09-0.227-0.157-0.463l-2e-3 -9e-3c-0.061-0.334-0.068-0.304-0.06-0.738l1e-3 -8e-3c0.048-0.415 0.051-0.385 0.149-0.697l2e-3 -3e-3c0.098-0.231 0.098-0.23 0.219-0.45l2e-3 -3e-3c0.224-0.327 0.212-0.301 0.431-0.522l6e-3 -6e-3c0.249-0.209 0.221-0.2 0.585-0.402l8e-3 -4e-3c0.225-0.098 0.225-0.098 0.458-0.173l0.012-4e-3c0.275-0.064 0.371-0.078 0.657-0.09 0.052 1e-3 0.105 2e-3 0.157 3e-3 0.375 0.026 0.567 0.069 0.951 0.16 0.681 0.169 1.36 0.348 2.041 0.516 0.208 0.05 0.417 0.102 0.625 0.153 0.367 0.093 0.367 0.093 0.733 0.188 19.179 5.159 34.634 19.919 46.517 35.186m13.591 67.855c0.112 0.671 0.369 1.937 1.142 2.248 0.235 0.088 0.474 0.168 0.711 0.248 26.577 8.855 34.553-26.433 39.723-44.389 0.201-0.696 0.404-1.391 0.609-2.086 6.333-21.255 15.824-42.829 31.649-58.763l0.249-0.249c-6e-3 3e-3 -0.012 5e-3 -0.018 7e-3 -30.639 12.427-50.33 42.497-64.866 70.705-4.509 8.75-9.36 19.971-9.358 30.125 0.368 0.642 0.441 1.427 0.159 2.154m26.82 2.326 5e-3 0.022c0.047 0.032 0.097 0.061 0.147 0.088 4.669 2.488 12.011 0.607 16.518-0.4 15.079-3.37 30.574-8.684 41.893-19.707l0.101-0.099c-0.274 0.127-0.55 0.25-0.826 0.373-0.281 0.123-0.562 0.244-0.844 0.364-8.8 3.697-18.387 5.293-27.848 5.853-1.42 0.078-2.839 0.149-4.258 0.228-5.36 0.314-11.557 0.729-16.608 2.992l-0.244 0.094c-0.153 0.042-0.227 0.066-0.333 0.085-2.083 3.69-4.585 7.218-7.703 10.107m-44.965-10.971c-0.22-0.065-0.438-0.14-0.657-0.207-0.251-0.076-0.502-0.149-0.755-0.219-5.352-1.461-11.474-1.702-16.901-2.061-0.489-0.034-0.978-0.069-1.467-0.106-9.803-0.792-19.721-2.745-28.682-6.928 1.993 1.811 3.999 3.633 6.229 5.143 3.038 2.057 6.173 4.024 9.523 5.522 11.194 5.009 21.867 8.087 33.94 9.154 2.296 0.203 7.428 0.487 9.504-1.018l9e-3 -7e-3 0.012-0.059 0.077-0.25 5e-3 -0.011c-4.447-1.801-8.038-5.132-10.837-8.953m21.085-22.003c-0.128-0.29-0.256-0.579-0.386-0.869-11.327-25.193-30.384-52.555-56.398-64.036 0 0 0.412 0.515 0.637 0.756 0.255 0.275 0.508 0.551 0.76 0.829 14.294 15.893 21.671 36.14 27.45 56.311 0.25 0.867 0.502 1.734 0.757 2.599 3.046 10.273 7.594 26.527 19.162 30.87 0.687-9.15 4.322-18.184 8.018-26.46m42.981 15.118 0.079-0.068c5.243-4.554 9.292-9.436 14.074-14.928 0.382-0.436 0.765-0.873 1.15-1.307 10.162-11.422 22.23-22.014 36.397-28.164l0.227-0.097 0.168-0.071c-0.325 3e-3 -0.65 0.012-0.974 0.021-17.851 0.607-35.121 9.038-49.71 18.747l-0.427 0.287-0.429 0.289-8e-3 5e-3c-0.678 2.344-1.337 4.693-2.012 7.037-0.23 0.797-0.462 1.593-0.696 2.388-1.734 5.846-3.618 11.674-6.08 17.26 2.675-0.702 5.548-1.129 8.241-1.399m-78.216-29.356c-0.238-0.144-0.477-0.287-0.716-0.431-13.322-7.918-28.653-14.583-44.406-14.848 0 0 0.516 0.253 0.78 0.369 0.314 0.139 0.627 0.281 0.94 0.423 14.078 6.506 25.969 17.222 36.098 28.791 1.12 1.285 2.233 2.576 3.351 3.863 3.695 4.235 6.922 7.806 10.974 11.295l0.215 0.211c1.061 0.138 2.133 0.301 3.186 0.496-4.336-8.333-6.778-17.547-9.346-26.524-0.219-0.76-0.44-1.52-0.663-2.28-0.136-0.456-0.273-0.911-0.413-1.365m62.858-29.943-0.09-0.547c-3.327-19.741-10.679-38.905-20.022-56.558l-0.076-0.143c-0.05 0.428-0.105 0.855-0.16 1.282-0.058 0.445-0.118 0.889-0.18 1.333-3.266 22.889-11.16 45.045-20.149 66.243 6.055 8.377 11.399 17.308 15.839 26.645 6.72-13.634 15.084-26.593 24.838-38.255" fill="#b80404" marker-start=""/>
<path d="m89.735 46.367" color="rgb(0, 0, 0)" fill="none" fill-rule="nonzero" marker-end="" marker-mid="" marker-start="" stroke="#000" stroke-dashoffset="" stroke-linejoin="miter"/>
<path d="m38.013 28.499h15.442v15.442h-15.442v-15.442zm1.8015-13.64v11.839h11.839v-11.839h-11.839z" color="rgb(0, 0, 0)" fill="none" fill-rule="nonzero" marker-end="" marker-mid="" marker-start="" stroke-dashoffset=""/>
<path d="m44.105 35.483h13.003v13.003h-13.003v-13.003zm1.5171-11.486v9.9693h9.9693v-9.9693h-9.9693z" color="rgb(0, 0, 0)" fill="none" fill-rule="nonzero" marker-end="" marker-mid="" marker-start="" stroke-dashoffset=""/>
<polyline class="" points="125.96 115.76 126.47 115.76 126.98 115.76 127.49 115.76 127.49 116.27 125.96 117.8 122.39 120.86 119.33 122.9 116.27 125.45 115.24 126.47 115.76 126.47 116.78 125.45 119.33 122.9 122.39 119.84 124.94 116.78 127.49 114.73 128.51 113.2 129.02 113.2 128 114.73 126.47 117.8 124.94 120.35 122.9 122.39 121.88 123.41 122.9 121.37 124.43 118.31 126.47 114.22 129.02 110.65 130.55 108.61 130.55 108.1 130.55 108.61 130.04 110.14 128 113.2 125.45 116.27 122.9 118.31 120.86 119.33 120.35 119.33 120.86 116.78 122.39 113.2 124.43 109.12 126.98 105.55 128.51 103 128 105.04 126.47 108.61 125.45 111.67 124.43 113.71 124.43 114.22 124.43 112.69 124.43 109.12 124.43 105.04 124.94 101.47 124.94 98.408 124.94 97.388 124.94 98.918 123.92 101.98 122.9 104.53 122.39 106.57 122.39 106.06 122.39 105.55 122.39 105.04 122.9 105.04" color="rgb(0, 0, 0)" fill="none" fill-rule="nonzero" marker-end="" marker-mid="" marker-start="" stroke="#900" stroke-dashoffset=""/>
<polyline points="140.76 105.55 132.59 109.63 131.57 110.14 131.06 110.65 128.51 112.18 126.98 113.71 126.47 115.76 125.96 118.82 125.96 121.37 125.96 123.92 125.96 125.96 125.96 127.49 125.96 128 126.47 126.98 126.47 124.43 126.47 120.35 126.47 117.8 126.47 114.73 126.98 113.2 127.49 115.24 127.49 117.29 127.49 119.84 127.49 121.37 127.49 122.39 128 120.35 128.51 116.78 128.51 112.69 128.51 107.59 127.49 101.98 125.96 96.878 124.43 92.796 123.41 89.735 123.41 88.204 122.9 87.694 122.9 88.204 123.41 89.224 124.43 91.265 125.45 93.816 126.98 97.388 128.51 100.45 130.04 104.02 131.57 106.57 132.08 107.59 132.59 109.12 132.59 108.61 132.59 106.57 132.08 103 131.57 99.429 131.06 96.367 131.06 92.796 131.06 90.245 131.06 89.224 131.06 88.204 131.06 87.184 131.06 86.673 131.06 86.163" color="rgb(0, 0, 0)" fill="none" fill-rule="nonzero" marker-end="" marker-mid="" marker-start="" stroke="#900" stroke-dasharray="2,2" stroke-dashoffset=""/>
<polyline class="" points="133.61 103 133.61 102.49 132.08 103 129.02 104.02 125.45 105.55 122.39 107.08 121.88 107.08 122.9 107.08 126.98 105.04 131.06 102.49 136.16 98.918 139.22 96.878 139.73 96.367 139.73 96.878 138.2 98.918 136.67 101.47 133.61 104.02 130.55 107.08 128 108.61 128 109.12 128 108.61 130.04 106.06 132.59 103.51 134.12 101.98 134.12 101.47 134.12 101.98 132.59 103.51 131.06 106.57 128 109.63 124.94 112.18 122.9 113.71 122.9 112.69 123.92 110.65 125.96 108.1 126.98 106.06 128 104.53 128 104.02 128 104.53 127.49 105.04 126.47 107.08 124.94 110.14 124.43 111.67 123.92 112.18 123.92 111.67 123.92 109.12 123.92 104.53 123.92 99.939 123.92 95.347 124.94 91.776 124.94 90.245 125.45 90.245 125.45 90.755 125.45 92.286 125.96 95.857 125.96 98.408 125.96 101.47 125.96 103.51 125.96 104.53 126.47 103 126.98 99.939 127.49 95.857 128 91.776 129.02 87.694 129.53 84.633 130.04 83.612 130.04 84.122 130.04 86.673 130.04 90.245 129.53 94.837 129.02 99.939 128 103.51 126.98 105.55 126.98 106.06 126.98 105.55 126.98 103.51 126.47 99.429 125.45 94.837 124.43 90.755 123.92 86.673 122.9 83.102 122.39 80.551 122.39 79.02 122.39 80.041 122.9 82.592 123.41 86.673 124.43 91.776 124.94 95.347 125.45 98.408 125.45 98.918 125.96 98.918 125.96 97.388 125.96 95.347 125.96 91.776 125.96 88.204 125.96 84.633 125.96 81.571 125.96 79.02 125.96 78 125.96 79.02 126.98 82.592 127.49 86.163 128 89.224 128 91.265 128 91.776 128.51 91.776 128.51 89.735 128.51 86.673 128.51 81.571 129.02 76.469 129.02 71.878 129.53 67.796 129.53 65.755 129.53 66.265 129.53 68.306 129.53 71.367 130.04 75.449 130.04 80.041 130.04 84.122 130.04 86.163 130.04 86.673 130.55 86.673 130.55 86.163 130.55 84.633 130.04 81.571 129.53 77.49 128.51 74.429 128 70.857 126.98 68.816 126.98 68.306 126.47 68.306 126.47 68.816 126.47 69.327 126.47 72.898 126.47 78 126.47 83.102 126.47 87.184 126.47 88.714 126.47 89.224 126.47 88.714 126.47 84.633 125.96 79.531 125.96 74.429 125.45 69.327 125.45 65.755 125.45 64.224 125.45 63.714 125.96 64.224 126.47 65.245 127.49 69.327 128.51 73.918 129.02 78.51 129.53 82.082 129.53 83.612 129.53 82.082 129.53 78.51 129.53 73.918 129.53 69.837 129.53 66.776 129.53 64.735 129.53 64.224 129.53 64.735 129.53 66.776 130.04 70.347 130.55 73.918 130.55 78 131.06 80.551 131.06 78.51 131.06 74.939 130.55 71.367 129.53 67.796 129.02 64.735 128.51 62.694 128.51 63.204 128.51 65.245 128.51 69.327 129.02 73.918 129.53 78 130.04 81.571 130.04 83.612 130.04 84.633 130.04 85.653" color="rgb(0, 0, 0)" fill="none" fill-rule="nonzero" marker-end="" marker-mid="" marker-start="" stroke="#900" stroke-dashoffset=""/>
<polyline class="" points="128.51 80.551 128.51 81.061 128.51 81.571 128.51 83.102 129.02 86.163 129.53 89.224 130.04 92.286 130.04 94.327 130.04 95.347 130.04 94.837 130.04 93.306 129.53 90.245 129.02 86.673 128 82.592 128 78 127.49 73.918 127.49 70.857 127.49 69.837 127.49 71.367 128 74.429 128.51 78.51 129.02 82.592 129.02 86.163 129.53 87.694 129.53 86.163 129.02 82.592 128.51 77.49 128 73.408 128 68.816 127.49 66.265 127.49 65.245 127.49 65.755 127.49 66.265 127.49 69.327 127.49 74.429 127.49 80.041 126.98 86.673 126.47 92.286 125.45 96.367 124.94 97.388 124.94 95.857 124.43 90.755 124.43 84.633 123.92 77.49 123.41 71.367 123.41 67.286 123.41 65.755 123.41 66.265 123.41 67.286 123.41 71.878 123.92 78.51 123.92 85.653 123.41 92.286 122.9 98.408 122.39 101.47 122.39 98.918 122.39 94.327 122.9 89.224 122.9 84.633 123.41 79.531 123.92 75.449 124.43 73.408 124.43 77.49 124.43 83.102 124.43 89.224 124.43 94.327 124.43 97.898 124.43 98.918 124.43 98.408 124.43 96.878 124.94 92.286 125.96 87.184 126.47 81.571 127.49 78 128 75.449 128 75.959 128 76.469 128.51 79.02 128.51 83.612 129.02 88.204 129.53 92.286 129.53 95.857 129.53 97.898 129.53 97.388 130.04 94.327 130.55 89.735 130.55 84.633 131.06 80.041 131.57 75.449 132.08 72.898 132.08 72.388 132.08 72.898 132.08 74.429 132.08 79.531 131.57 85.653 131.06 91.265 130.55 94.837 130.04 96.367 129.53 92.796 129.02 88.714 128.51 84.122 128 80.551 127.49 77.49 127.49 76.98 126.98 77.49 126.98 78 126.98 80.551 126.98 85.143 126.98 89.224 126.98 93.306 126.98 95.857 126.98 96.367 126.98 94.837 126.98 91.265 126.98 87.184 126.98 83.612 126.98 80.551 126.47 78.51 126.47 78 126.47 78.51 126.47 79.531 125.96 83.612 125.45 89.224 124.43 93.816 123.41 98.408 122.9 100.45 122.39 100.96 122.39 99.939 122.39 94.837 122.39 89.224 122.39 82.592 122.39 78 122.39 74.939 122.9 74.429 122.9 74.939 122.9 78.51 122.9 82.592 123.41 88.714 122.9 94.327 122.39 99.939 121.88 103.51 121.88 100.45 122.39 95.857 123.41 89.735 124.43 83.612 125.45 79.02 125.96 75.959 125.96 75.449 125.96 75.959 125.96 77.49 126.47 83.102 126.98 89.224 126.98 96.367 126.98 103 126.98 106.06 126.98 105.55 127.49 105.04 127.49 99.939 127.49 93.306 127.49 85.653 127.49 78.51 127.49 72.388 127.49 67.796 127.49 65.755 127.49 66.776 128 70.347 129.02 75.959 130.04 82.592 131.06 88.204 132.08 92.286 132.08 92.796 132.59 92.796 132.59 91.265 132.59 87.184 132.59 82.592 132.59 77.49 132.59 71.878 132.59 67.286 132.59 63.714 132.59 63.204 132.59 63.714 132.59 65.245 133.1 69.327 133.61 73.918 133.61 78 134.12 81.571 134.12 82.592 134.12 83.102 134.63 82.592 134.63 80.041 134.12 76.98 133.61 73.408 133.1 70.347 132.08 67.796 131.57 66.776 131.06 66.776 131.06 67.286 131.06 68.306 131.06 69.837 131.06 71.878 131.57 74.429 132.08 76.469 132.08 74.429 132.08 71.367 132.08 68.306 131.06 65.755 131.06 65.245 131.06 65.755 131.06 66.265 131.06 68.816 131.06 73.408 131.57 77.49 132.08 81.571 132.59 84.633 132.59 85.653 132.59 84.122 132.59 80.551 131.57 76.469 130.04 72.388 129.02 69.837 128.51 68.816 128 68.816 128 69.327 128 69.837 128 73.408 128.51 77.49 129.02 81.571 129.53 84.122 130.04 85.653 130.55 85.653 130.55 83.102 130.55 80.041 130.55 75.959 130.55 72.388 130.04 68.816 129.53 65.755 129.53 64.735 129.53 67.286 130.04 70.347 131.06 73.918 131.06 78.51 131.57 82.082 131.57 85.143 131.57 85.653 131.57 85.143 131.57 84.633 131.57 81.571 131.06 77.49 130.55 73.918 130.04 70.347 129.53 69.327 129.53 69.837 129.53 72.388 129.53 76.469 130.04 80.551 130.55 84.633 130.55 88.714 131.06 91.265 131.06 92.286 130.55 92.286 130.04 92.286 129.53 92.286 129.53 91.776" color="rgb(0, 0, 0)" fill="none" fill-rule="nonzero" marker-end="" marker-mid="" marker-start="" stroke="#900" stroke-dashoffset=""/>
<polyline points="124.36 123.96 121.64 127.15 122.55 125.33 124.82 122.15 127.09 118.96 129.36 115.78 130.27 115.33 130.73 116.69 130.27 120.33 128.91 124.42 127.55 128.51 126.18 131.69 125.73 132.6 126.18 131.24 128 128.05 130.27 123.96 133.91 119.42 137.55 115.33 140.73 112.6 141.64 112.15 141.18 114.42 139.36 118.51 137.09 122.6 134.36 125.78 131.18 128.51 127.55 130.78 125.73 131.24 125.73 130.33 126.18 127.15 127.55 123.51 129.82 118.96 131.64 116.24 132.09 115.78 132.09 116.24 131.18 118.96 129.82 121.69 128.45 123.96 128 125.33 128 124.87 129.36 122.6 131.18 120.33 132.09 118.96 132.55 118.51 132.55 118.05" color="rgb(0, 0, 0)" fill="none" fill-rule="nonzero" marker-end="" marker-mid="" marker-start="" stroke="#900" stroke-dashoffset=""/>
<polyline points="126.18 116.24 128.45 113.96 129.36 112.15 130.73 108.96 133 105.33 134.36 101.69 134.82 100.33 134.82 99.873 134.36 102.6 133 105.78 130.73 110.78 128 115.33 125.73 119.42 123.45 122.6 123.45 123.05 123.45 122.6 123.45 122.15 123.91 121.69 124.36 120.33 124.36 119.87 124.82 119.42 125.73 118.96 128.45 116.69 133 113.51 138 110.78 140.73 109.42 141.18 109.42 141.18 110.33 140.27 113.51 138.45 117.15 136.18 121.24 133.91 123.96 132.55 125.33 132.09 125.33 132.09 124.87 133 122.15 133.91 118.05 134.82 113.51 135.73 110.78 135.73 109.42" color="rgb(0, 0, 0)" fill="none" fill-rule="nonzero" marker-end="" marker-mid="" marker-start="" stroke="#900" stroke-dashoffset=""/>
<polyline points="124.82 121.24 124.82 120.78 125.27 120.78 126.64 119.87 129.36 117.15 132.09 113.96 133.45 112.6 133.91 111.24 133.45 112.15 131.18 116.24 128.45 120.33 127.55 122.6 126.64 123.96 126.64 124.42 127.09 124.42 129.36 122.6 131.18 120.33 133.45 117.6 136.18 114.87 137.55 113.96 138 113.51 137.55 114.87 137.09 115.78 134.82 119.42 132.09 123.05 129.82 126.24 128.91 127.6 129.36 127.15 131.18 124.42 133.45 120.33 135.73 116.69 136.64 113.96 137.09 112.6 137.55 112.6 137.55 113.05 137.55 113.51 136.64 116.24 135.73 120.33 134.36 123.96 132.55 126.69 131.64 127.6 131.64 125.78 131.64 123.05 132.09 119.87 132.55 116.24 132.55 112.15 132.55 108.05 132.55 104.42 132.55 101.69 131.64 99.873 131.18 99.873 130.73 102.15 130.27 105.78 130.27 109.42 130.27 111.69 130.27 113.05 130.73 113.05 130.73 112.6 131.18 109.87 131.18 105.78 130.73 100.78 130.27 96.236 129.82 91.236 129.82 87.145 129.82 85.782 129.82 85.327 129.82 85.782 129.82 86.236 129.36 89.873 128.91 94.873 128 100.78 127.09 106.24 127.09 110.33 126.64 112.15 126.64 111.69 127.09 111.24 127.55 107.6 128.45 102.6 128.91 97.6 128.91 92.6 128.45 88.055 128 85.327 128 84.873 128 85.327 127.55 86.691 126.64 91.691 126.18 98.509 125.27 104.87 124.82 110.78 123.91 114.87 123.91 116.24 123.91 115.78 123.91 114.87 123.91 110.33 123.91 105.33 123 98.964 122.55 93.509 121.64 89.418 121.64 87.6 121.18 89.418 121.18 94.418 120.73 100.78 120.27 108.51 119.82 115.78 119.36 121.69 118.91 124.42 119.36 121.24 119.82 115.78 119.82 109.87 119.82 103.51 119.82 98.964 119.82 96.236 120.27 95.327 120.27 95.782 120.27 97.145 120.27 101.24 119.82 106.24 119.82 110.33 119.36 112.15" color="rgb(0, 0, 0)" fill="none" fill-rule="nonzero" marker-end="" marker-mid="" marker-start="" stroke="#900" stroke-dashoffset="" stroke-width="4"/>
<polyline points="123.91 126.69 125.27 126.69 126.18 126.24 127.09 125.78 128 125.33 129.36 123.51 130.73 121.69 132.55 119.42 133.91 117.15 135.27 114.87 135.73 113.05 136.18 112.6 136.18 113.51 135.73 114.87 134.82 116.69 133.91 119.42 133.45 121.69 133 123.96 132.09 126.69 131.64 128.96 130.73 130.78 130.27 132.6 129.82 133.96 129.36 135.33 128.45 136.69 128 138.05 127.55 139.42 127.09 140.78 127.09 141.69 126.64 142.15 126.64 143.05 126.64 143.51 126.64 143.96 126.18 143.96" color="rgb(0, 0, 0)" fill="none" fill-rule="nonzero" marker-end="" marker-mid="" marker-start="" stroke="#900" stroke-dashoffset="" stroke-width="10"/>
<polyline points="132.55 166.24 132.55 165.78 133 164.87 134.36 163.51 135.73 161.69 136.64 159.87 137.55 158.51 138.45 157.15 138.91 155.78 139.36 154.87 140.27 153.96 140.73 153.05 140.73 152.6 141.64 151.69 142.09 150.78 143 149.42 143.91 148.05 144.82 146.69 145.73 145.78 146.18 144.42 147.09 143.51 147.55 142.6 148 141.69 148.45 140.78 148.91 140.33 149.82 139.42 150.27 138.05 151.18 137.15 151.64 136.24 152.55 134.87 153.45 133.51 153.91 132.6 154.36 131.69 155.27 130.33 155.73 129.42 156.18 128.96 157.09 127.6 157.55 126.69 158.45 125.78 158.91 125.33 159.82 124.42 160.27 123.51 161.18 122.6 161.64 121.69 162.55 120.78 163 119.87 163.45 118.96 164.36 118.51 164.36 118.05 165.27 117.15 165.73 116.69 166.18 116.24 166.64 115.78 167.55 115.33 168 114.42 168.91 113.51 169.36 113.05 169.82 112.6 170.27 112.15 170.73 111.24 171.18 110.78 171.64 110.33 172.09 109.87 172.55 109.42 173 108.96 173 108.51 173.45 108.51 173.45 108.05 173.91 108.05 174.36 107.6 174.36 107.15 174.82 106.69 175.27 106.69 175.27 106.24 175.73 105.78 176.18 105.78 176.18 105.33 176.64 105.33 176.64 104.87 177.55 104.42 178 103.96 178.45 103.51 178.91 103.05 179.36 102.6 179.82 102.6 179.82 102.15 180.27 102.15 180.27 101.69 180.73 101.69 181.18 101.24 181.64 100.78 182.09 100.78 182.09 100.33 182.55 100.33 182.55 99.873 183 99.873" color="rgb(0, 0, 0)" fill="none" fill-rule="nonzero" marker-end="" marker-mid="" marker-start="" stroke="#900" stroke-dashoffset="" stroke-width="10"/>
<polyline points="168 120.78 167.55 121.24 167.09 122.6 166.18 123.96 165.27 125.33 164.36 127.15 163.45 128.51 163 130.33 162.09 131.69 161.64 132.6 160.73 133.96 160.27 135.33 159.36 136.69 158.91 138.05 158 139.42 157.09 140.78 156.64 142.15 155.73 143.96 154.82 146.24 153.91 148.05 153 149.87 152.09 151.69 151.18 153.51 150.27 155.33 149.36 157.15 148.45 158.96 147.55 160.78 146.18 163.05 145.27 164.87 144.82 166.69 143.91 168.51 143 169.87 142.09 171.69 141.18 173.51 140.27 175.33 139.36 176.69 138.45 178.05 138 179.42 137.09 180.78 136.64 181.69 135.73 182.6 135.27 183.51 134.82 183.96 134.82 184.42 134.36 184.87 134.82 184.87 135.27 183.51 136.18 181.24 138 178.05 139.82 174.42 142.09 169.87 143.91 166.24 146.18 162.15 148 158.96 149.82 155.33 151.18 152.6 152.55 149.87 153.91 147.15 155.27 144.87 156.18 142.6 157.55 139.87 158.45 137.6 159.82 135.33 160.73 133.05 161.64 131.24 163 129.42 163.91 127.6 164.82 125.78 165.27 124.87 166.18 123.51 166.64 122.6 167.09 121.69 167.55 120.78 167.55 120.33 168 119.87 168 119.42 168.45 119.42 168.45 118.96 168.91 118.51 169.36 117.6 169.82 117.15 170.27 116.24 170.73 115.78 171.18 114.87 171.64 114.42 171.64 113.96 172.09 113.96 172.09 113.51 172.09 113.96 171.64 114.42 170.73 115.33 169.36 117.15 168 118.96 166.18 120.78 164.36 123.05 162.55 124.87 160.27 127.15 158 129.42 155.27 131.69 153 134.42 150.73 136.24 148 138.96 145.73 141.24 143.45 143.51 141.64 146.24 139.82 148.51 138.45 150.78 137.09 152.6 136.18 154.42 135.27 155.78 134.36 157.6 133.45 158.51 133 160.33 132.55 161.24 131.64 162.6 131.18 163.96 130.73 165.33 130.27 166.24 130.27 167.6 129.82 168.51 129.82 169.87 129.36 171.24 128.91 172.6 128.45 173.51 128.45 174.42 128 175.33 128 176.24 128 176.69 128 177.15 128 177.6 128.45 178.51 128.45 179.42 128.45 180.33 129.82 178.96 131.18 177.15 133.45 173.51 136.18 168.96 138 164.87 140.73 160.33 143.45 155.33 145.27 151.24 147.09 147.6 148.45 144.42 149.82 142.15 150.73 140.33 151.18 138.96 151.64 138.05 152.09 137.15 152.55 136.24 153 135.78 153.45 135.33 153.45 134.42 154.36 133.51 155.27 132.15 155.73 130.78 156.64 129.87 157.09 128.51 157.55 127.6 158 127.15 158.45 126.24 158.45 125.78 158.91 124.87 159.82 123.51 160.27 122.15 160.73 120.78 161.64 119.42 162.09 118.51 162.55 117.6 163 116.69 163.45 115.78 163.91 114.87 164.36 114.42 164.82 113.51 165.27 113.05 166.18 111.69 166.64 110.78 167.09 109.87 167.55 109.42 168 109.42 168 108.96 168.45 108.96 168.45 108.51 168.91 108.51 169.36 108.05 169.82 108.05 170.27 107.6 169.82 107.6 169.82 108.05 168.45 108.96 167.55 109.87 167.09 110.78 166.18 111.69 164.82 113.05 163.45 114.87 162.09 116.69 159.82 118.96 158.45 121.24 156.64 123.05 155.27 124.87 153.45 127.15 152.55 128.51 151.18 130.33 149.82 131.69 148.45 133.05 148 134.42 147.09 135.78 146.64 136.69 145.73 137.6 145.27 138.96 144.36 140.33 143.45 141.69 143 143.51 142.09 144.87 142.09 145.78 141.64 146.69 141.64 147.6 141.18 148.05 141.18 148.96 140.73 149.87 140.73 150.33 140.73 150.78 140.73 151.24 140.73 151.69 140.27 151.69 140.27 152.15 140.27 152.6 139.82 153.05 139.82 153.51 139.36 153.96 138.91 155.33 138.45 156.24 138 157.6 137.55 158.96 137.09 160.33 136.64 161.69 135.73 163.05 135.27 164.42 134.82 165.78 134.36 166.69 133.91 167.6 133.45 168.96 133.45 169.87 133 170.78 132.55 171.69 132.09 172.6 131.64 173.96 131.18 174.87 130.73 175.78 130.27 176.24 130.27 177.15 129.82 177.6 129.36 178.96 128.91 179.87 128 181.24 127.55 182.15 127.09 183.05 126.18 183.96 125.73 185.33 125.27 186.24 124.82 187.15 124.36 188.51 123.91 189.42 123.45 190.33 123.45 190.78 123.45 191.69 123 192.15 123 192.6 123 192.15 123 191.24 123 189.87 123.45 188.51 123.45 188.05" color="rgb(0, 0, 0)" fill="none" fill-rule="nonzero" marker-end="" marker-mid="" marker-start="" stroke="#900" stroke-dashoffset="" stroke-width="10"/>
<polyline points="161.18 143.51 159.82 145.78 159.36 147.15 158.91 148.05 158.91 148.96 158 149.87 157.55 151.24 157.09 153.05 156.18 154.42 155.73 156.24 154.82 158.05 153.91 159.87 153.45 161.69 153 163.51 152.09 165.33 151.64 167.15 151.18 168.96 150.27 170.78 149.82 172.6 148.91 174.42 148.45 175.78 147.55 178.05 146.64 179.42 145.73 180.78 145.27 182.15 144.36 183.05 143.91 183.96 143 185.33 142.09 185.78 141.64 186.69 140.73 188.05 140.27 188.51 139.36 189.42 138.91 189.87 138 190.33 137.55 190.78 136.64 191.24 135.27 192.15 133.91 192.6 132.55 193.51 130.73 194.42 129.82 194.87 129.36 194.87 128.91 195.33 128.45 195.78 128 195.78 127.55 195.78 127.09 196.24 126.64 196.24 126.18 196.24" color="rgb(0, 0, 0)" fill="none" fill-rule="nonzero" marker-end="" marker-mid="" marker-start="" stroke="#900" stroke-dashoffset="" stroke-width="10"/>
<polyline points="133.91 167.15 131.64 168.51 131.64 168.96 130.73 169.42 129.36 170.78 128.45 171.69 127.09 173.05 126.18 174.42 125.27 175.78 124.82 176.69 123.91 178.05 123.91 178.96 123.45 179.87 123 180.33 123 181.24 122.55 182.15 122.55 183.05 122.55 183.96 122.09 184.42 122.09 185.33 122.09 186.24 122.09 187.15 122.09 188.05 122.09 188.96 122.09 189.42 122.09 190.33 122.55 190.78 123 191.69 123.45 192.15 123.91 193.05 124.36 193.51 124.82 194.42 125.27 194.42 126.18 194.87 127.09 195.33 127.55 195.78 128.45 195.78 128.91 195.78 129.36 195.78 129.36 195.33" color="rgb(0, 0, 0)" fill="none" fill-rule="nonzero" marker-end="" marker-mid="" marker-start="" stroke="#900" stroke-dashoffset="" stroke-width="10"/>
<polyline points="136.18 187.6 135.27 188.96 134.82 189.42 134.36 189.87 133.45 190.78 132.09 191.69 131.18 192.15 130.73 192.15 130.27 192.6 129.82 192.6 129.36 192.6 129.36 193.05 128.91 193.05 128.45 193.05 127.55 193.51 126.64 193.51 126.18 193.96 125.73 193.96 125.73 194.42 125.27 194.42 124.82 194.87 124.36 195.33 123.91 195.33 123.45 195.33 123.45 195.78 123.45 196.24 123 196.69 122.55 197.15 121.64 197.6 121.64 198.05" color="rgb(0, 0, 0)" fill="none" fill-rule="nonzero" marker-end="" marker-mid="" marker-start="" stroke="#900" stroke-dashoffset="" stroke-width="10"/>
<polyline points="124.82 185.33 125.73 183.05 125.73 182.6 125.73 181.24 126.18 179.87 126.18 178.05 126.18 176.24 126.18 174.42 126.18 173.05 126.18 171.69 126.18 170.33 126.18 169.42 126.18 168.51 126.18 168.05 126.18 167.6 126.18 167.15 126.18 166.69 126.64 166.69" color="rgb(0, 0, 0)" fill="none" fill-rule="nonzero" marker-end="" marker-mid="" marker-start="" stroke="#900" stroke-dashoffset="" stroke-width="10"/>
<polyline points="158.91 146.69 159.36 146.69 159.36 146.24 159.36 145.78 159.82 145.33 159.82 144.87 160.27 144.87 160.27 144.42 160.73 144.42 160.73 143.96 161.18 143.96 161.64 143.96 162.09 143.96 162.55 143.96 163 143.96 163.45 143.96" color="rgb(0, 0, 0)" fill="none" fill-rule="nonzero" marker-end="" marker-mid="" marker-start="" stroke="#900" stroke-dashoffset="" stroke-width="10"/>
<polyline points="160.73 168.96 161.18 168.96 161.64 168.96 162.55 168.51 163.91 167.6 166.18 165.78 167.55 164.87 170.27 162.6 172.09 161.24 173.45 160.33 174.36 159.42 174.82 158.96 175.27 158.51 176.18 158.05 176.64 157.15 177.55 155.78 178.45 154.87 178.91 154.42 179.82 153.51 180.27 153.05 180.73 152.6 181.18 152.15 181.64 151.69 182.09 151.24 182.55 150.78 182.55 150.33 183 149.87 183.45 149.87 183.45 149.42 183.91 148.96 184.36 148.51 184.82 148.51 185.27 147.6 185.73 147.15 186.18 146.69 187.09 146.24 187.09 145.78 187.55 145.78 187.55 145.33 187.55 144.87 188 144.87 188 144.42 188.45 144.42" color="rgb(0, 0, 0)" fill="none" fill-rule="nonzero" marker-end="" marker-mid="" marker-start="" stroke="#900" stroke-dashoffset="" stroke-width="10"/>
<polyline points="145.73 191.69 149.36 192.15 149.82 192.15 151.64 192.15 153.45 192.15 155.27 192.15 157.55 192.15 158.91 191.69 159.82 191.69 160.27 191.69 160.27 191.24 160.73 191.24 161.18 191.24 162.09 191.24 163 190.78 163.45 190.78 164.36 190.78 164.82 190.33 165.73 190.33 166.64 189.87 167.55 189.87 168.91 189.42 169.82 189.42 171.18 188.96 172.09 188.51 172.55 188.51 172.55 188.05 173 188.05 173.91 188.05 175.27 187.6 176.18 187.15 177.55 186.24 178 186.24 178.45 185.78 178.91 185.78 178.91 185.33 179.36 185.33 179.82 185.33 179.82 184.87 180.27 184.87 180.73 184.87 181.18 184.42 181.64 184.42 182.09 183.96 182.55 183.96 183 183.96 183 183.51 183.45 183.51 183.91 183.51 184.36 183.51 184.82 183.05 185.27 183.05 185.73 182.6 186.64 182.6 187.55 182.15 188 182.15 188.45 182.15 188.45 181.69 188.91 181.69 189.36 181.69 189.82 181.24 190.27 181.24 191.18 181.24 191.64 180.78 192.55 180.78 193.45 180.33 194.36 180.33 194.82 179.87 195.27 179.87 195.73 179.87 195.73 179.42 196.18 179.42 196.64 179.42 197.09 179.42 197.55 179.42 197.55 178.96 198 178.96 198.45 178.96 198.91 178.96 198.91 178.51 199.36 178.51 199.82 178.51 199.82 178.05 200.27 178.05 200.73 178.05 201.18 178.05 201.18 177.6 201.64 177.6 202.09 177.6 202.55 177.6 202.55 177.15 203 177.15 203.45 177.15 203.45 176.69 203.91 176.69 204.36 176.69" color="rgb(0, 0, 0)" fill="none" fill-rule="nonzero" marker-end="" marker-mid="" marker-start="" stroke="#900" stroke-dashoffset="" stroke-width="10"/>
<polyline points="186.64 187.6 186.18 187.6 185.73 187.6 185.27 188.51 184.36 188.96 183.45 189.42 182.55 189.42 182.09 189.42 182.09 189.87 181.64 189.87 181.18 189.87 180.73 189.87 180.27 189.87 179.82 189.87 179.36 189.87 179.36 190.33 178.91 190.33 178.45 190.33 178 190.33 177.55 190.78 178 190.33 178.91 189.87 180.27 188.96 182.09 188.05 183.91 187.15 185.27 186.69 187.09 185.78 188 185.33 188.45 185.33 188.91 185.33 189.36 185.33 189.36 184.87 189.82 184.87 190.27 184.87 189.82 184.87 189.82 185.33 189.36 185.33" color="rgb(0, 0, 0)" fill="none" fill-rule="nonzero" marker-end="" marker-mid="" marker-start="" stroke="#900" stroke-dashoffset="" stroke-width="10"/>
<polyline points="176.64 188.96 175.27 189.42 174.36 189.87 172.55 190.33 170.27 190.78 168.45 191.24 166.18 191.69 163.91 192.15 161.18 192.6 159.36 193.05 158 193.51 157.09 193.51 156.64 193.96 156.18 193.96 155.73 193.96 155.27 193.96 154.36 193.96 153.91 193.96 153.45 193.96 153.45 193.51 154.36 193.51 156.18 192.6 158.91 191.69 161.64 190.78 163.45 189.87 164.36 189.42 164.82 188.96 164.36 188.96 163.91 188.96 163 188.51 161.64 188.51 160.27 188.51 158.91 188.51 157.55 188.51 157.09 188.51 156.64 188.51 157.09 188.51 158 188.51 159.82 188.51 161.64 188.51 163.45 188.51 165.73 188.51 167.55 188.51 168.91 188.51 169.36 188.51 168.91 188.51 168.45 188.51 167.09 188.51 165.73 188.51 164.36 188.96 162.09 189.42 159.82 189.87 158.45 189.87 156.64 190.33 155.27 190.33 154.36 190.33 153.45 190.33 153 190.33 151.64 190.33 151.18 190.33 151.64 190.33 153 190.33 155.27 189.87 158.45 189.87 162.09 189.42 165.73 188.96 169.36 188.51 171.64 188.05 172.55 187.6 172.09 187.6 171.18 188.05 168.91 188.51 167.09 188.96 164.36 189.42 161.64 189.87 158.91 190.33 156.64 190.33 155.27 190.78 154.82 190.78 154.36 190.78 153.91 191.24 153.45 191.24 153 191.24 152.55 191.69 151.64 192.15 150.73 192.6 149.36 193.51 148.91 193.51 148.45 193.96" color="rgb(0, 0, 0)" fill="none" fill-rule="nonzero" marker-end="" marker-mid="" marker-start="" stroke="#900" stroke-dashoffset="" stroke-width="10"/>
<polyline points="148 194.87 148.91 195.33 149.36 195.78 150.73 195.78 151.64 196.24 152.09 196.24 152.55 196.24 153 196.24 153.45 196.69 154.36 196.69 154.82 196.69 155.27 196.69 155.73 196.69 155.27 197.15 154.82 197.15 153.91 197.6 153 197.6 152.09 197.6 151.18 197.6 150.73 197.6 150.27 197.6 149.82 197.6 149.36 197.6 148.91 197.6 148.45 197.6 148 197.15 147.55 197.15 147.09 197.15 146.64 197.15 146.18 197.15 146.18 196.69 145.73 196.69 145.27 196.69 144.82 196.69 144.82 196.24 144.36 196.24" color="rgb(0, 0, 0)" fill="none" fill-rule="nonzero" marker-end="" marker-mid="" marker-start="" stroke="#900" stroke-dashoffset="" stroke-width="10"/>
<polyline points="127.55 191.69 125.73 193.51 125.73 193.96 124.82 194.42 124.36 194.87 124.36 195.33 123.91 195.33 123.91 195.78 123.45 195.78 123 195.78 123 196.24 122.55 196.24 122.09 196.24 121.64 196.24 121.18 196.24 120.73 196.24 120.27 196.24 119.82 196.24 119.82 195.78 119.36 195.78 119.36 195.33 118.91 194.87" color="rgb(0, 0, 0)" fill="none" fill-rule="nonzero" marker-end="" marker-mid="" marker-start="" stroke="#900" stroke-dashoffset="" stroke-width="10"/>
<polyline points="124.82 185.78 124.36 187.15 123.91 187.6 123.91 188.51 123 189.42 122.55 190.33 122.09 191.24 121.64 191.69 121.18 192.15 121.18 192.6 120.73 193.05 120.73 193.51 120.27 193.96 119.82 194.42 119.36 194.87 119.36 195.33 118.91 195.78 118.91 196.24 118.91 196.69" color="rgb(0, 0, 0)" fill="none" fill-rule="nonzero" marker-end="" marker-mid="" marker-start="" stroke="#900" stroke-dashoffset="" stroke-width="10"/>
<polyline points="143.91 184.87 147.09 181.69 148 180.78 150.27 178.96 152.55 177.15 153.91 176.24 155.27 174.87 155.73 173.51 156.64 172.6 157.09 172.15 157.55 171.69 157.55 171.24 158 170.78 158.45 170.78 158.45 170.33 158.45 169.87 158.91 169.87 159.36 168.96 159.82 168.51 160.27 168.05 160.73 167.15 161.64 166.69 162.55 165.78 163.45 164.87 163.91 164.42" color="rgb(0, 0, 0)" fill="none" fill-rule="nonzero" marker-end="" marker-mid="" marker-start="" stroke="#900" stroke-dashoffset="" stroke-width="10"/>
<polyline points="151.64 175.33 152.09 174.87 152.55 174.42 153 174.42 155.27 172.6 158 169.87 160.73 167.6 162.55 165.33 163.45 163.51 164.82 161.69 166.18 160.33 167.09 158.96 168 157.6 168.45 156.69 168.91 156.24 168.91 155.78" color="rgb(0, 0, 0)" fill="none" fill-rule="nonzero" marker-end="" marker-mid="" marker-start="" stroke="#900" stroke-dashoffset="" stroke-width="10"/>
<polyline points="153 166.24 158.91 162.15 159.36 162.15 161.18 160.78 164.82 158.51 167.55 156.69 169.36 155.33 170.73 154.42 171.64 153.51 172.09 153.51 172.09 153.05 172.55 153.05 173 152.6 173.45 152.6 173.45 152.15 173.91 151.69 174.82 151.24 175.27 150.78 175.73 150.33 176.64 149.87 177.55 149.42 178 148.96 178.45 148.96 178.91 148.51" color="rgb(0, 0, 0)" fill="none" fill-rule="nonzero" marker-end="" marker-mid="" marker-start="" stroke="#900" stroke-dashoffset="" stroke-width="10"/>
<polyline points="170.27 156.69 172.09 155.78 172.55 155.78 173.91 154.87 176.64 153.51 178.91 152.6 180.73 151.24 181.64 150.78 182.09 150.78 182.55 150.33 183 149.87 183.45 149.87 183.91 149.42 184.82 149.42 185.27 148.96 185.73 148.51 186.18 148.51 186.18 148.05 186.64 148.05 186.64 147.6 187.09 147.6 187.09 147.15 186.64 147.15" color="rgb(0, 0, 0)" fill="none" fill-rule="nonzero" marker-end="" marker-mid="" marker-start="" stroke="#900" stroke-dashoffset="" stroke-width="10"/>
<polyline points="174.82 153.51 175.27 152.6 176.64 151.24 177.55 149.87 178.45 148.96 178.91 148.51 179.36 148.05 179.82 148.05 179.82 147.6 180.27 147.6 180.27 147.15 180.73 147.15 181.18 146.69 181.64 146.69 181.64 146.24 182.09 146.24 182.55 146.24 183 145.78 183.45 145.78" color="rgb(0, 0, 0)" fill="none" fill-rule="nonzero" marker-end="" marker-mid="" marker-start="" stroke="#900" stroke-dashoffset="" stroke-width="10"/>
<polyline points="170.73 160.33 169.82 162.15 169.82 162.6 168.91 163.96 168 165.33 167.09 167.15 166.18 168.51 165.27 169.87 164.36 171.24 163.45 172.6 163 173.51 162.09 174.42 161.64 174.87 160.73 175.78 160.27 176.24 160.27 176.69 159.82 177.15 159.82 177.6 159.36 178.05 158.91 178.96 158.91 179.42 158.45 179.42 158.45 179.87 158.45 180.33 158 180.33 158 180.78 158 181.24 158 181.69 157.55 182.15 157.55 182.6" color="rgb(0, 0, 0)" fill="none" fill-rule="nonzero" marker-end="" marker-mid="" marker-start="" stroke="#900" stroke-dashoffset="" stroke-width="10"/>
<polyline points="123.91 178.96 124.36 178.96 124.36 178.05 123.91 176.69 122.55 174.42 120.73 171.69 118.45 168.51 116.64 165.33 114.82 162.6 113 159.42 111.64 157.15 109.82 154.87 108.91 153.05 108 152.15 107.09 150.78 106.64 149.87 105.73 148.51 105.27 147.15 103.91 145.33 103.45 143.51 102.09 141.69 101.18 139.87 100.73 138.51 99.818 137.6 99.364 136.69 98.909 136.24 98.455 135.33 98 134.87 98 134.42 97.545 134.42 97.545 133.96 97.091 133.51 96.636 133.05" color="rgb(0, 0, 0)" fill="none" fill-rule="nonzero" marker-end="" marker-mid="" marker-start="" stroke="#900" stroke-dashoffset="" stroke-width="10"/>
<polyline points="126.64 165.78 127.09 163.05 127.09 162.6 126.64 160.78 125.73 158.05 125.27 154.87 123.91 150.78 123 145.78 122.55 141.69 122.09 137.6 122.09 134.87 121.64 131.24 121.18 128.05 121.18 125.78 120.73 123.96 120.73 123.05 120.73 122.6" color="rgb(0, 0, 0)" fill="none" fill-rule="nonzero" marker-end="" marker-mid="" marker-start="" stroke="#900" stroke-dashoffset="" stroke-width="10"/>
<polyline points="129.36 156.24 130.73 150.33 130.73 149.42 130.73 146.69 130.73 141.69 130.73 136.24 131.18 130.78 131.64 125.33 132.09 120.78 132.09 117.15 132.09 114.42 132.09 112.15 132.09 111.69 132.09 112.15" color="rgb(0, 0, 0)" fill="none" fill-rule="nonzero" marker-end="" marker-mid="" marker-start="" stroke="#900" stroke-dashoffset="" stroke-width="10"/>
<polyline points="137.55 143.51 138 132.6 138 131.69 138 129.87 138.45 124.87 138.45 118.96 138.45 113.96 138 108.96 138 104.87 138 102.15 138 100.78" color="rgb(0, 0, 0)" fill="none" fill-rule="nonzero" marker-end="" marker-mid="" marker-start="" stroke="#900" stroke-dashoffset="" stroke-width="10"/>
<polyline points="140.27 138.51 140.27 131.69 140.27 131.24 139.82 127.15 139.36 121.24 138 114.87 137.09 108.51 135.73 102.15 134.36 97.145 133.45 92.6 133 89.873 133 88.964 132.55 88.964" color="rgb(0, 0, 0)" fill="none" fill-rule="nonzero" marker-end="" marker-mid="" marker-start="" stroke="#900" stroke-dashoffset="" stroke-width="10"/>
<polyline points="138.91 120.78 136.64 106.24 136.64 105.33 135.73 101.69 134.82 97.145 134.36 93.055 133.45 90.327 133 88.509 133 87.6 132.55 87.145 132.55 86.691 132.55 86.236 132.55 85.782 132.55 84.873 132.55 83.964 132.55 83.055 132.55 81.691 132.55 80.327 132.55 79.418 132.55 78.055 132.55 77.6 132.55 76.691 132.55 76.236 132.55 76.691 132.55 77.6 133.45 78.964 133.45 80.782 133.91 83.055 134.36 85.327 134.82 88.055 135.27 90.782 135.73 93.509 135.73 95.782 135.73 98.055 135.73 99.873 135.73 100.33 134.82 100.33 134.36 99.873 133.45 98.509 132.09 97.145 130.73 95.327 128.91 93.509 128 91.691 127.55 89.873 126.64 88.055 126.64 86.236 126.18 84.873 126.18 83.509 126.18 83.055 126.18 82.6 126.18 83.055 126.18 83.509 126.18 84.418 126.18 86.236 126.64 88.509 126.64 91.236 126.64 93.055 126.64 93.964 126.64 93.509 126.64 91.691 127.09 89.873 127.09 88.055 127.09 85.327 127.55 82.6 127.55 79.873 127.55 78.055 127.55 77.145 127.55 75.782 127.55 74.873 127.55 73.509 127.55 72.145 127.55 71.236 127.55 70.782 127.55 70.327 127.55 69.873 127.55 69.418 128 69.418 128 70.327 128.45 71.691 128.91 73.509 129.36 76.236 129.82 78.964 130.27 81.691 130.73 83.055 130.73 83.509 131.18 82.6 131.18 81.691 131.18 80.327 131.18 78.509 131.18 77.145 131.64 74.873 131.64 72.6 131.64 70.782 131.64 69.418 131.64 69.873 131.64 70.327 131.64 71.691 131.64 73.055 131.64 75.327 131.64 78.055 132.09 81.691 132.09 85.782 132.55 89.873 133 93.964 133.45 97.145 133.45 99.418 133.91 101.69 133.91 103.51 134.36 105.33 134.36 106.69 134.36 107.6 134.36 108.51 134.36 109.87 134.82 111.24 134.82 113.05 135.27 114.87 135.27 116.69 135.73 117.6 135.73 118.96 136.18 120.33 136.18 121.69 136.64 122.6 137.09 124.42 137.55 125.78 138.45 127.15 138.91 128.51 139.36 128.51 139.36 127.15 139.36 124.87 139.82 122.6 139.82 119.42 139.82 115.78 139.36 112.15 139.36 108.51 139.36 105.78 139.36 103.51 138.91 101.24 138.91 99.418 138.45 98.509 138.45 96.691 138 95.327 138 93.964 137.55 92.6 137.55 91.236 137.55 90.782 137.55 91.236 137.55 91.691 137.55 92.6 138 94.418 138 96.236 138.45 98.509 138.91 101.24 139.36 103.96 139.82 106.69 140.73 109.42 141.18 112.6 142.09 114.87 142.55 117.15 143 118.96 143.45 120.78 143.91 122.6 143.91 123.96 144.36 125.33 144.82 126.69 144.82 128.05 145.27 128.96 145.27 129.87 145.27 130.78 145.73 131.24 145.73 130.78 145.27 129.87 144.82 128.51 144.82 127.15 144.36 125.33 143.45 123.05 143 120.33 142.09 118.05 141.64 115.33 140.73 112.6 140.27 109.42 139.82 106.24 139.36 104.42 139.36 103.05 139.36 102.15 139.36 101.69 138.91 101.69 138.91 101.24 138.91 100.78 138.91 100.33 138.45 99.873 138.45 99.418 138.45 98.964 138 98.509 138 98.055" color="rgb(0, 0, 0)" fill="none" fill-rule="nonzero" marker-end="" marker-mid="" marker-start="" stroke="#900" stroke-dashoffset="" stroke-width="10"/>
<polyline class="" points="138 119.42 138.45 112.6 138.91 111.69 138.91 108.96 138.91 106.69 138.91 105.33 138.91 104.87 139.36 106.24 140.27 108.51 141.18 111.69 142.55 115.33 143.91 119.87 145.73 123.96 146.64 127.15 147.55 128.96 147.55 129.87 147.55 129.42 147.55 128.96 147.55 127.6 147.55 125.33 147.55 123.05 147.09 119.87 146.18 117.15 145.27 114.42 143.91 109.87 143 107.15 142.55 106.24 141.64 103.96 141.18 102.6 141.18 102.15 141.18 102.6 141.18 103.51 141.18 105.78 141.18 108.96 141.18 112.6 141.18 118.05 141.18 123.51 140.27 128.05 138.45 132.6 136.18 135.78 133.91 137.15 131.18 137.6 127.55 136.69 123.91 134.42 121.18 131.69 119.36 128.51 117.55 124.87 116.64 120.33 115.73 116.24 115.73 112.6 115.73 110.78 115.73 109.87 115.73 111.69 116.64 115.33 116.64 119.42 116.64 124.42 116.64 129.42 116.64 133.05 116.64 134.87 116.64 134.42 117.09 133.51 117.55 129.87 118.45 124.87 119.36 119.42 120.73 113.51 122.09 105.33 122.09 104.87 122.09 105.33 122.09 107.6 122.55 113.05 122.55 119.87 122.55 128.05 122.09 136.24 121.64 143.51 121.18 148.51 120.73 149.42 120.73 148.96 120.73 144.87 120.73 138.51 120.73 119.42 120.73 117.15 120.73 111.69 120.73 109.87 120.73 110.33 120.73 111.24 119.82 115.78 118.91 122.6 117.55 130.78 116.64 138.96 115.27 147.6 114.82 153.05 114.82 155.33 114.82 154.87 114.82 147.15 114.82 143.96 114.82 138.05 114.82 133.05 114.82 128.51 114.82 125.78 114.82 125.33 114.82 125.78 114.36 129.42 113 135.33 111.64 142.6 110.27 149.87 109.36 154.87 108.91 156.69 109.36 148.51 109.36 147.15 109.82 141.24 110.27 135.33 111.18 130.78 111.18 128.96 111.18 130.78 111.18 135.78 111.18 141.69 110.27 148.96 108.91 155.33 107.55 160.33 107.09 162.6 106.64 156.69 106.64 155.33 106.18 148.05 106.18 145.33 105.73 142.15 105.73 140.33 105.27 140.33 105.27 143.05 106.18 148.51 107.09 155.33 107.55 162.15 108 167.6 108.45 168.96 108.45 169.42 108.45 168.05 106.18 161.24 105.27 158.96 104.36 156.24 103 151.69 101.64 146.69 100.27 142.15 98.909 138.51 98 135.78 97.545 133.96 97.545 132.6 97.545 132.15 97.545 132.6 98 134.87 103 148.96 103 149.42 103.91 152.6 103.91 154.42 103.91 153.96 103.45 151.24 102.09 148.05 100.27 143.96 98.455 140.33 96.636 136.69 94.818 133.05 93 130.33 91.182 126.24 90.273 125.33 90.273 124.87 89.818 124.87 89.818 124.42 89.818 123.96 89.364 123.96 89.364 123.05 88.909 122.6 88.455 121.69 88 121.24 87.545 120.33 87.545 119.87 87.091 119.42 85.727 118.05 85.727 117.6 85.273 117.15 84.818 116.69 84.364 116.24 83.909 115.33 83 114.42 82.091 113.51 81.182 112.6 80.273 111.69 79.364 110.78 78.909 110.33 78.455 109.87 78 109.42 77.545 109.42 77.545 108.96 77.091 108.96 77.091 108.51 76.636 108.05 76.182 107.6 75.727 107.15 75.273 106.69 74.818 106.24" color="rgb(0, 0, 0)" fill="none" fill-rule="nonzero" marker-end="" marker-mid="" marker-start="" stroke="#900" stroke-dashoffset="" stroke-width="10"/>
<polyline points="109.82 156.24 108 149.87 107.55 149.42 107.55 148.51 104.82 143.05 103.45 140.78 101.64 137.15 99.818 133.51 98.909 130.78 98 128.51 97.091 127.15 96.182 125.33 95.727 124.42 95.273 123.05 94.818 122.15 94.364 121.69 94.364 122.15 94.818 122.15 95.273 123.05 96.182 124.87 97.091 127.6 98.455 130.78 100.27 134.87 102.09 138.96 103.45 142.15 105.27 145.78 106.64 148.96 108.45 151.69 109.36 153.96 110.73 156.69 111.64 158.51 112.55 159.87 113 160.78 113 161.24 113 161.69 113 162.15" color="rgb(0, 0, 0)" fill="none" fill-rule="nonzero" marker-end="" marker-mid="" marker-start="" stroke="#900" stroke-dashoffset="" stroke-width="10"/>
<polyline points="110.73 181.69 110.73 180.33 109.82 178.96 108.91 176.69 107.09 173.51 105.73 170.33 103.91 167.15 103 164.42 102.09 162.15 101.18 160.33 100.27 158.96 100.27 158.51 100.27 158.96 100.73 159.42 101.64 160.78 103.45 162.6 105.27 164.87 107.09 167.15 108.45 169.42 109.82 171.24 111.18 173.51 112.55 174.87 113.45 175.78 113.91 176.24 114.36 176.69 114.82 176.24 115.27 175.33 116.64 173.51 118 171.24 119.82 168.05 121.64 164.42 123.45 161.24 124.36 158.96 124.82 158.51 124.82 158.96 125.27 160.78 125.27 163.05 125.27 165.78 124.82 168.96 123 172.15 121.18 174.42 118 177.15 117.55 177.15 117.55 176.69 117.55 175.33 117.55 173.51 117.55 171.24 117.55 168.51 117.55 166.24 117.55 164.42 117.55 166.24 117.55 169.42 116.64 173.51 115.27 177.15 114.36 180.78 113.45 183.96 113 185.33 113 185.78 113.45 185.78 113.45 186.24 112.55 186.69 110.73 186.69 110.27 186.69 108 185.78 106.18 185.33 105.73 184.42 105.27 183.96 104.82 183.05 104.82 182.15 104.36 181.24 103.91 180.33 103.91 179.87 103.91 178.96 103.45 178.51 103.45 177.6 103 177.15 103 176.69 103 175.33 102.55 175.33 103 176.69 103.45 178.05 104.36 179.42 105.27 180.33 105.73 181.24 105.73 181.69 105.73 182.15 106.18 182.15 106.18 181.69 106.18 181.24 105.73 180.33 105.27 178.96 104.36 176.69 103.45 174.42 102.55 172.6 102.09 170.78 101.18 168.05 101.18 167.6 100.73 166.24 100.27 164.42 99.818 163.05 99.364 161.69 99.364 160.33 98.909 158.96 98.909 158.05 98.455 157.15 98.455 156.24 98 155.78 98 154.87 97.545 154.42 97.545 153.51 97.091 152.6 96.182 149.87 95.727 148.96 95.273 147.15 94.818 146.24 94.364 144.87 93.909 144.42 93.909 143.96 93.909 145.78 94.818 147.6 95.273 149.87 95.727 152.15 95.727 155.33 95.727 158.05 96.182 160.33 96.182 161.69 96.182 162.6 96.182 163.05 96.182 162.6 96.182 162.15 95.727 160.78 94.818 158.96 94.364 157.15 93.455 154.87 93 152.6 92.545 150.33 92.091 147.6 91.636 145.33 91.182 143.51 90.727 141.69 90.727 140.33 90.273 139.42 90.273 138.51 89.818 137.6 89.818 136.69 89.364 136.24 89.364 135.78 89.364 135.33 88.909 134.42 88.909 133.51 88.455 132.6 88 131.24 88 130.33 87.545 129.42 87.091 128.51 86.636 127.6 86.182 126.69 86.182 125.78 85.273 124.42 85.273 123.51 84.818 123.05 84.818 122.6 84.364 122.6 84.364 122.15 83.909 121.69 83.909 120.78 83.455 120.33 83.455 119.87 83 119.42 83 118.96 82.545 118.51 82.091 117.6 81.182 115.78 80.727 115.33 80.727 114.87 80.273 114.42 79.818 113.51 79.364 113.05 78.909 112.6 78.909 112.15 78.455 111.69 78.455 111.24 78 111.24 78 110.78" color="rgb(0, 0, 0)" fill="none" fill-rule="nonzero" marker-end="" marker-mid="" marker-start="" stroke="#900" stroke-dashoffset="" stroke-width="10"/>
<polyline points="99.818 167.15 98 165.78 97.545 165.33 96.182 164.42 94.818 163.51 93.455 161.69 92.091 160.33 90.727 158.96 89.364 157.6 88.909 156.69 87.545 155.33 86.636 154.42 85.727 153.51 84.818 152.6 83.909 151.69 83 150.78 82.091 149.87 80.727 148.96 79.818 148.51 78.909 148.05 78 147.6 77.545 147.15 74.818 146.24 73.909 145.78 73 145.78 72.091 145.33 71.636 144.87 70.727 144.42 70.273 144.42 69.818 143.96 69.364 143.96 68.909 143.96 68.455 143.96" color="rgb(0, 0, 0)" fill="none" fill-rule="nonzero" marker-end="" marker-mid="" marker-start="" stroke="#900" stroke-dashoffset="" stroke-width="10"/>
<polyline points="94.818 165.33 94.818 164.87 93.909 164.42 92.545 163.51 90.727 162.15 88.909 160.78 87.091 158.96 84.818 157.6 83 155.78 81.182 154.42 79.818 153.05 78.455 152.15 77.545 151.24 76.636 150.33 76.182 149.87 75.273 148.96 74.818 148.51 74.364 148.05 74.364 147.6 73.909 147.6 73.909 148.05 73.909 148.51" color="rgb(0, 0, 0)" fill="none" fill-rule="nonzero" marker-end="" marker-mid="" marker-start="" stroke="#900" stroke-dashoffset="" stroke-width="10"/>
<polyline points="94.818 171.69 92.091 168.96 92.091 168.51 89.818 166.24 88 164.42 86.636 162.15 85.273 160.33 83.909 158.51 83.455 157.15 82.545 155.78 82.091 154.87 81.636 153.96 81.182 153.51 80.727 152.6 80.273 151.69 79.818 151.24 78.909 150.33 78.909 149.87 78.455 149.42 78.909 149.87" color="rgb(0, 0, 0)" fill="none" fill-rule="nonzero" marker-end="" marker-mid="" marker-start="" stroke="#900" stroke-dashoffset="" stroke-width="10"/>
<polyline points="98 172.15 97.545 172.15 97.091 172.15 96.182 172.15 94.364 171.69 93 170.78 91.636 169.42 89.818 167.6 88 165.33 85.727 162.6 84.818 161.24 83.455 159.87 82.545 158.51 82.091 157.6 81.182 157.15 81.182 156.69 80.727 156.24 80.727 155.78 79.818 155.33 78.909 153.96 78 152.6 77.091 151.69 76.636 151.24 76.182 150.78 75.273 149.87 74.818 149.42 74.818 148.96 74.364 148.96 73.909 148.96" color="rgb(0, 0, 0)" fill="none" fill-rule="nonzero" marker-end="" marker-mid="" marker-start="" stroke="#900" stroke-dashoffset="" stroke-width="10"/>
<polyline points="96.636 173.96 95.273 173.96 94.818 173.51 93.909 173.51 93 172.6 91.636 171.69 90.727 170.33 89.364 169.42 88 167.6 86.182 166.24 85.273 164.87 84.364 163.51 83.455 162.6 83.455 161.69 82.545 160.78 82.091 159.87 81.636 158.96 80.727 158.05 80.727 157.6 80.273 156.69 79.818 156.24 79.364 155.33 78.909 154.42 78.455 153.96 78 153.05 77.545 152.6 77.091 152.15 77.091 151.69 76.636 151.69 76.182 151.24" color="rgb(0, 0, 0)" fill="none" fill-rule="nonzero" marker-end="" marker-mid="" marker-start="" stroke="#900" stroke-dashoffset="" stroke-width="10"/>
<polyline points="109.82 186.69 107.09 187.6 106.64 188.05 104.36 188.51 101.18 188.51 97.545 188.96 93.909 188.96 90.273 188.96 86.636 188.51 83.455 188.05 80.727 187.6 78.455 187.6 76.636 187.15 75.727 187.15 74.818 186.69 74.364 186.69 73.909 186.69 73.455 186.24 73 186.24" color="rgb(0, 0, 0)" fill="none" fill-rule="nonzero" marker-end="" marker-mid="" marker-start="" stroke="#900" stroke-dashoffset="" stroke-width="10"/>
<polyline points="151.18 160.78 158.91 159.42 161.18 158.96 161.64 158.51 167.55 157.15 173.91 155.33 181.64 153.05 185.73 151.69 187.55 150.78 188 150.33 188 149.87 188 149.42 188.45 148.96 188.91 148.96 188.91 148.51 189.36 148.05 190.27 147.15 191.64 145.78 192.55 144.87 194.36 143.51 196.64 142.15 199.36 140.78 201.18 139.87 203.45 138.51 204.82 137.6 206.64 137.15 207.09 137.15 207.09 136.69 207.09 137.15 206.64 137.15 205.73 137.6 205.27 137.6 204.36 138.05 203.91 138.51 203 138.96 201.18 139.87 199.82 140.33 198.45 141.24 197.09 142.15 195.73 142.6 194.82 143.51 193.91 143.96 192.55 144.42 191.18 145.33 190.27 145.78 189.82 146.24 190.27 146.24 190.73 145.78 192.09 144.87 193.91 143.96 197.09 142.6 200.73 140.78 204.36 138.96 208 137.6 210.27 136.69 211.18 136.69 210.73 136.69 209.36 137.6 206.64 138.96 203 140.78 199.36 142.6 195.73 144.42 192.55 145.78 189.82 146.69 187.55 147.6 186.64 148.51 186.64 148.96 186.64 148.51 187.09 148.05 188.45 147.15 190.27 145.78 194.36 143.96 199.36 141.69 203.91 139.42 206.64 137.6 208 136.69 208.45 136.24 208.91 135.78 209.36 135.78 209.82 135.78 210.73 135.78 211.64 135.78 212.09 135.78 213 135.33 213.91 135.33 214.36 135.33 214.36 134.87 214.82 134.87 214.36 134.87 213.91 134.87 213.45 134.87 213 134.87 212.55 134.87 212.09 134.87 211.64 134.87 211.18 134.87 211.64 134.87 212.09 134.87 213.45 134.42 216.18 133.51 218 133.05 218.91 132.6 218.45 132.6 218 132.6 217.09 133.05 215.27 133.05 212.09 133.96 208.91 134.42 207.55 134.42 204.82 134.87 202.09 135.33 198.91 135.78 196.64 136.24 195.27 136.24 194.36 136.69 193.45 137.15 193 137.15 192.55 137.15 191.64 137.6 190.73 137.6 188.45 138.51 188 138.51 187.09 138.96 186.64 139.42 186.18 139.42 185.73 139.87 185.27 140.33 184.82 140.78 184.36 141.69 183.91 142.15 183.91 142.6 184.36 142.6 185.27 142.6 186.64 142.15 189.82 141.24 193.91 139.87 197.55 138.96 199.82 138.05 201.18 137.15 201.64 136.69 201.18 136.69 201.18 137.15 199.82 138.05 198 139.42 195.73 141.24 193.45 143.05 190.73 144.87 188 147.15 184.36 149.87 181.18 152.15 178.45 153.96 177.09 155.33 176.18 156.69 175.73 158.05 175.27 158.51 175.27 158.96 175.73 158.96 176.64 158.05 178.91 157.15 182.55 155.33 186.64 153.51 189.82 151.69 193 150.33 194.82 149.42 195.73 148.96 195.73 148.51 196.18 148.51 195.73 148.96 195.27 149.42 193.91 150.33 192.09 151.69 190.27 153.05 187.55 155.33 185.73 157.15 185.27 157.6 183.91 158.51 183 159.42 182.09 160.78 181.18 161.69 180.27 163.05 179.36 163.96 178.45 164.87 178 165.78 177.09 166.24 176.64 167.15 175.73 168.51 173.91 169.87 172.55 171.69 172.09 172.15 171.64 172.6 171.18 173.51 170.27 174.42 169.82 174.87 169.82 175.33 169.82 175.78 169.36 175.78 168.91 176.24 168.91 176.69 168.45 176.69 168.45 176.24 168.91 175.33 168.91 173.96 169.82 171.69 171.18 169.42 173 167.15 174.82 164.87 176.64 163.51 178 162.6 178.45 162.15 178.45 161.69 178.45 162.15 178.45 162.6 177.55 163.51 176.18 165.78 174.82 166.69 173 168.51 170.73 170.33 168.45 172.15 165.27 173.96 161.64 175.78 159.36 177.6 157.55 178.51 157.09 178.51" color="rgb(0, 0, 0)" fill="none" fill-rule="nonzero" marker-end="" marker-mid="" marker-start="" stroke="#900" stroke-dashoffset="" stroke-width="5"/>
<polyline points="114.82 192.6 113.45 193.51 112.55 193.96 111.64 193.96 110.27 193.96 109.36 193.96 108.45 193.96 108 194.42 107.55 194.42 107.09 194.42 106.64 194.42 105.73 194.42 104.82 193.96 103.91 193.96 103 193.96 102.55 193.96 102.09 193.96 100.73 193.51 99.818 193.51 99.364 193.51 98.455 193.51 97.545 193.51 96.636 193.51 96.182 193.05 95.727 193.05 95.273 193.05 94.818 193.05 93.909 193.05 93 193.05 92.091 192.6 91.182 192.6 90.727 192.6 90.273 192.6 89.364 192.15 88 192.15 87.091 191.69 86.636 191.69 85.727 191.24 84.818 191.24 83.909 190.78 83.455 190.78 83 190.78 82.545 190.33 82.091 190.33 81.636 190.33 81.636 189.87 80.727 189.87 79.364 189.42 77.545 189.42 75.273 188.96 73 188.51 71.182 188.05 70.273 188.05 68.909 187.6 68.455 187.6 67.545 187.15 66.636 186.69 66.182 186.69 65.727 186.24 65.273 186.24 64.818 185.78 63.909 184.87 63.455 184.42 63 183.96 63 183.51 62.545 183.51 62.545 183.05 62.091 183.05 61.636 183.05 61.182 182.15 60.727 182.15 60.273 182.15 60.273 181.69 59.818 181.69 59.818 181.24 59.364 181.24 58.909 181.24 58.909 180.78 58.455 180.78 58 180.78 57.545 180.33 57.091 180.33 56.636 179.87 55.727 179.42 55.273 178.96 54.818 178.96 54.364 178.96 54.364 178.51 53.909 178.51 53.455 178.51 53.455 178.05 53 178.05 53 177.6 52.545 177.6 52.091 177.6 51.636 177.6 51.636 177.15 51.182 177.15 50.727 177.15 51.182 177.15 52.091 177.6 53.455 178.05 54.818 178.05 55.727 178.51 57.091 178.96 57.545 178.96 58.455 178.96 59.364 179.42 59.818 179.42 60.727 179.87 62.091 179.87 63.455 179.87 63.909 180.33 64.818 180.33 65.727 180.78 66.636 180.78 68 181.24 69.364 181.24 70.273 181.69 70.727 182.15 71.636 182.15 72.545 182.6 73.455 183.05 74.364 183.51 75.273 183.51 76.182 183.96 77.091 183.96 77.545 183.96 78.455 183.96 78.909 183.96 78.455 183.96 78.455 184.42 77.545 184.42 76.636 184.87 75.727 184.87 74.818 184.87 73.909 184.87 73 184.42 71.182 184.42 69.818 183.96 68.909 183.51 68 183.51 67.091 183.51 66.636 183.51 66.182 183.51 65.727 183.05 65.273 183.05 65.727 183.05 67.091 183.05 69.364 183.05 71.636 183.05 74.818 183.51 77.545 183.51 79.818 183.96 82.091 184.42 83.455 184.42 84.364 184.42 85.273 184.87 85.727 184.87" color="rgb(0, 0, 0)" fill="none" fill-rule="nonzero" marker-end="" marker-mid="" marker-start="" stroke="#900" stroke-dashoffset="" stroke-width="5"/>
<polyline points="94.364 177.15 94.818 177.6 94.818 178.05 94.818 178.51 95.273 178.51 94.818 178.51 94.364 178.51 93.909 178.51 94.364 178.96 95.273 178.96 96.182 179.42 97.091 179.42 96.636 179.42 96.182 179.42 95.273 179.42 93.909 178.96 92.091 178.51 91.636 178.51 91.182 178.51 91.182 178.05 91.636 178.05 92.091 178.05 93.455 178.51 95.273 179.42 97.091 180.33 98.455 181.24 98.909 181.69 98.909 181.24" color="rgb(0, 0, 0)" fill="none" fill-rule="nonzero" marker-end="" marker-mid="" marker-start="" stroke="#900" stroke-dashoffset="" stroke-width="5"/>
<polyline points="100.27 193.05 100.27 193.51 98.455 194.42 97.091 194.42 94.818 194.87 93.455 194.87 92.091 194.87 92.545 194.87 93.909 194.87 99.364 193.51 104.36 192.6 108 191.69 112.55 191.24 114.36 190.78 113.45 190.78 110.73 190.78 106.18 190.78 100.73 190.78 94.364 190.78 88.909 190.33 86.182 189.87 84.818 188.05 84.818 186.69 85.727 185.33 87.091 183.96 88.909 182.15 90.727 180.78 92.091 179.42 92.545 178.96 91.636 179.87 90.273 181.69 88.909 183.51 88 184.42 88 184.87 88.455 184.42 90.273 183.05 93.455 180.78 96.182 178.51 97.091 177.6 97.091 178.05 95.273 180.33 93.455 182.15 92.091 183.96 91.636 185.33 91.636 185.78 92.545 186.24 97.091 186.24 111.18 183.51 115.73 182.15 126.18 179.87 135.73 177.6 138.91 176.69 138.45 176.69 136.18 177.15 130.27 179.42 124.36 181.69 117.55 184.42 113 186.24 112.55 186.24 113.91 185.33 120.27 179.42 140.27 160.33 141.64 158.51 141.64 158.05 141.18 158.05 139.36 159.87 135.73 162.6 133 164.42 132.09 164.87 132.55 164.42 134.82 161.24 138 156.69 142.09 151.69 144.36 147.6 143.91 145.78 143.45 145.78 140.73 146.24 135.27 148.05 130.27 149.87 125.73 151.69 124.36 152.15 124.36 151.69 124.82 150.33 126.18 147.6 127.55 144.42 128.45 142.15 128.45 140.78 128 140.78 126.18 140.78 109.82 146.24 108.91 146.24" color="rgb(0, 0, 0)" fill="none" fill-rule="nonzero" marker-end="" marker-mid="" marker-start="" stroke="#900" stroke-dashoffset="" stroke-width="5"/>
<polyline points="183.45 96.236 183.91 96.236 184.36 96.236 184.82 95.782 185.27 95.327 185.73 94.873 186.18 94.873 186.18 94.418 186.64 94.418 187.09 94.418 186.64 94.418 185.73 94.873 184.82 96.236 183.45 97.145 182.09 98.055 181.18 98.964 180.73 99.418 181.18 99.418 181.64 98.964 183 97.6 185.27 95.782 187.55 94.418 189.36 93.055 190.73 91.691 191.18 91.236 191.18 91.691 190.73 91.691 190.73 92.145 189.82 93.055 188.91 93.964 188 94.873 187.09 95.782 186.18 96.691 185.27 97.145 184.82 97.6 184.36 98.055 184.82 98.055 184.82 97.6 185.27 97.6" color="rgb(0, 0, 0)" fill="none" fill-rule="nonzero" marker-end="" marker-mid="" marker-start="" stroke="#900" stroke-dashoffset="" stroke-width="5"/>
<polyline points="79.818 116.69 78 113.05 77.545 112.15 76.636 110.78 76.182 109.42 76.182 108.96 75.727 108.05 75.727 107.6 75.273 106.69 74.818 105.78 74.818 105.33 73.909 104.87 73.455 103.96 73 103.51 72.545 103.05 71.636 102.6 71.182 102.15 70.727 102.15 70.273 102.15 70.273 101.69 69.818 101.69 69.364 101.69 68.909 101.69 68.909 101.24 68.455 101.24 68 101.24 68 100.78 67.545 100.78 67.091 100.78 66.636 100.78 67.091 100.78 67.545 101.24 67.545 101.69" color="rgb(0, 0, 0)" fill="none" fill-rule="nonzero" marker-end="" marker-mid="" marker-start="" stroke="#900" stroke-dashoffset="" stroke-width="5"/>
<polyline points="76.182 108.51 74.818 108.51 74.364 108.05 73.909 108.05 73.455 107.6 73 107.15 72.545 106.69 72.091 106.24 71.636 105.78 71.182 105.33 70.727 104.42 70.273 104.42 70.273 103.96 69.818 103.51 69.818 103.05 69.364 103.05 69.364 102.6 68.909 102.6 68.455 102.15 68.455 101.69 68 101.69 67.545 101.24 67.091 100.78 66.182 100.33 66.182 99.873 65.727 99.873 65.273 99.873 65.273 99.418 64.818 99.418 64.818 98.964 64.364 98.964 63.909 98.509 63.909 98.055 63.455 98.055" color="rgb(0, 0, 0)" fill="none" fill-rule="nonzero" marker-end="" marker-mid="" marker-start="" stroke="#900" stroke-dashoffset="" stroke-width="5"/>
<polyline points="79.364 154.87 76.636 153.51 76.182 153.05 74.818 151.69 73 150.78 71.636 149.42 70.273 148.05 69.364 146.69 68 145.78 67.545 145.33 66.636 144.87 66.182 144.42 65.727 143.96 64.818 143.51 64.364 143.05 63.455 143.05 63 142.6 62.091 142.15 61.182 141.69 60.273 140.78 59.364 140.33 58 139.42 56.182 138.05 55.727 138.05 54.818 137.6 53.909 137.15 53 136.69 52.545 136.24 51.636 135.78 50.727 135.78 49.818 135.33 49.364 135.33 48.909 134.87 48.455 134.87 48 134.87 46.636 134.42 45.727 134.42 45.273 134.42 44.818 134.42 44.364 134.42 43.455 134.42 42.545 134.42 42.091 134.42 41.636 134.42 41.182 134.42 40.727 134.42 39.818 134.42 38.909 134.42 38.455 134.42" color="rgb(0, 0, 0)" fill="none" fill-rule="nonzero" marker-end="" marker-mid="" marker-start="" stroke="#900" stroke-dashoffset="" stroke-width="5"/>
<polyline points="75.727 146.69 75.727 146.24 75.273 146.24 74.818 145.78 73.909 145.33 73 144.87 71.636 143.96 70.727 143.51 68.909 142.6 67.545 141.69 66.636 141.24 65.727 140.78 65.273 140.78 65.273 140.33 64.818 140.33 64.364 140.33 63.909 139.87 61.636 139.42 60.727 139.42 59.818 139.42 59.364 139.42 58.909 139.42 58.455 139.42 58 139.42" color="rgb(0, 0, 0)" fill="none" fill-rule="nonzero" marker-end="" marker-mid="" marker-start="" stroke="#900" stroke-dashoffset="" stroke-width="5"/>
<polyline points="75.273 157.15 75.273 156.69 74.818 156.24 74.364 155.33 73.455 154.42 72.545 153.05 70.727 151.24 69.364 149.42 67.091 146.69 66.182 145.33 65.727 144.87 64.818 143.96 64.364 143.05 63.455 142.6 63 142.15 62.545 141.69 61.636 141.24 61.182 140.78 59.818 140.33 58 139.87 56.636 139.42 54.364 139.42 51.182 138.51 45.727 138.05 45.273 138.05 44.364 137.6 43.455 137.6 43 137.6 43 137.15 42.545 137.15" color="rgb(0, 0, 0)" fill="none" fill-rule="nonzero" marker-end="" marker-mid="" marker-start="" stroke="#900" stroke-dashoffset="" stroke-width="5"/>
<polyline points="45.273 136.24 51.636 136.69 53 137.15 54.818 137.6 56.182 138.05 57.545 138.51 58.909 138.96 60.273 139.42 62.545 140.78 63.909 141.24 64.818 142.15 65.727 143.05 67.091 143.96 67.545 144.42 68.455 145.33 68.909 146.24 69.818 147.15 70.273 148.05 71.182 148.96 72.091 149.87 72.545 150.78 73 152.15 75.727 156.24 76.182 156.69 76.636 157.6 77.545 158.51 78 158.96 78.455 159.87 78.909 160.78 79.364 161.24 80.273 161.69 80.273 162.15" color="rgb(0, 0, 0)" fill="none" fill-rule="nonzero" marker-end="" marker-mid="" marker-start="" stroke="#900" stroke-dashoffset="" stroke-width="5"/>
<polyline points="81.182 163.51 79.818 162.6 79.364 162.15 78.455 161.24 78 160.33 76.636 159.42 76.182 158.05 74.818 156.69 73.909 155.78 73 154.87 72.545 154.42 72.091 153.96 72.091 153.51 71.636 153.51 71.182 153.05 70.273 152.6 69.364 152.15 68.455 151.69 67.545 151.24 67.091 150.78 66.182 150.33 65.727 149.87 64.818 149.42 63.909 148.51 63.455 148.05 63 147.6 62.545 147.15 61.636 146.69 61.182 146.24 60.727 145.78 60.273 145.33 59.818 144.87 58.909 143.96 58.455 143.51 58 143.05 57.545 143.05 57.545 142.6 57.091 142.6 57.091 142.15 56.636 142.15 56.182 142.15 55.727 141.69 55.273 141.69 54.818 141.24 54.364 140.78" color="rgb(0, 0, 0)" fill="none" fill-rule="nonzero" marker-end="" marker-mid="" marker-start="" stroke="#900" stroke-dashoffset="" stroke-width="5"/>
<polyline points="111.64 103.05 110.73 103.51 110.27 103.96 108.91 104.87 108 105.78 107.55 106.69 106.64 107.6 106.18 108.05 106.18 108.51 106.18 108.96 106.18 109.42" color="rgb(0, 0, 0)" fill="none" fill-rule="nonzero" marker-end="" marker-mid="" marker-start="" stroke="#fff" stroke-dashoffset=""/>
<polyline points="106.82 105.84 106.65 106.27 106.65 106.35 106.65 106.95 106.65 107.29 106.82 107.63 106.99 107.8 107.08 107.88 107.16 107.97 107.16 108.05 107.33 108.31 107.5 108.39 107.67 108.48 107.93 108.14 108.18 107.37 108.52 106.18 108.95 105.07 109.21 103.97 109.46 103.03 109.55 102.78 109.55 102.69 109.55 102.86 109.29 103.29 108.95 104.05 108.35 104.9 107.67 105.75 106.91 106.86 106.23 107.88 105.63 108.82 105.12 109.33 105.04 109.5 105.21 109.33 105.55 108.65 106.06 107.46 106.65 106.18 107.33 105.16 107.93 104.31 108.35 103.88 108.35 103.97 108.1 104.73 107.59 105.75 106.91 107.03 106.06 107.97 105.38 108.73 104.95 109.07 104.95 109.16 104.95 109.07 105.12 108.82 105.63 107.97 106.23 107.12 107.25 106.01 108.18 105.07 108.61 104.73 108.61 104.82 108.61 104.99 108.35 105.84 107.67 106.86 106.74 107.97 105.89 108.82 105.38 109.5 105.21 109.67 105.21 109.58 105.29 109.5 105.63 108.65 106.14 107.63 106.91 106.44 107.5 105.41 107.84 104.99 107.93 104.9 107.93 104.99 107.93 105.16 107.76 105.5 107.5 106.01 107.42 106.27" color="rgb(0, 0, 0)" fill="none" fill-rule="nonzero" marker-end="" marker-mid="" marker-start="" opacity="0" stroke="#fff" stroke-dashoffset=""/>
<polyline points="108.11 105.76 108.11 106.53 108.02 106.7 107.68 107.21 107.09 108.06 106.4 108.83 105.89 109.51 105.64 109.76 105.64 109.85 105.64 109.85 105.81 109.76 106.06 109.59 106.92 108.83 107.17 108.66 107.68 108.15" color="rgb(0, 0, 0)" fill="none" fill-rule="nonzero" marker-end="" marker-mid="" marker-start="" opacity="0" stroke="#fff" stroke-dashoffset=""/>
<polyline points="107.77 106.53 107.77 106.53 107.51 106.61 107.17 106.87 106.75 106.95 106.32 107.29 105.89 107.63 105.72 107.81" color="rgb(0, 0, 0)" fill="none" fill-rule="nonzero" marker-end="" marker-mid="" marker-start="" opacity="0" stroke="#fff" stroke-dashoffset=""/>
<polyline points="108.53 104.91 108.36 105.42 108.28 105.68 107.85 106.27 107.43 106.95 107 107.55 106.75 107.89 106.66 108.15 106.57 108.15 106.66 108.06 107 107.81 107.43 107.21 107.85 106.61 108.28 105.85 108.62 105.25 108.7 105.17" color="rgb(0, 0, 0)" fill="none" fill-rule="nonzero" marker-end="" marker-mid="" marker-start="" opacity="0" stroke="#fff" stroke-dashoffset=""/>
<polyline points="98.745 114.44 98.745 114.53 98.745 114.61 98.83 114.7 99.085 115.04 99.341 115.38 99.511 115.63 99.681 115.98 99.766 116.32 99.937 116.66 100.11 117 100.28 117.25 100.45 117.59 100.53 118.02 100.53 118.36 100.62 118.78 100.62 119.04 100.62 119.29 100.62 119.55 100.62 119.72 100.62 119.89 100.62 120.06 100.62 120.15 100.53 120.15 100.53 120.15 100.28 119.89 100.02 119.81 99.681 119.63 99.426 119.46 99.171 119.29 98.915 119.12 98.745 118.95 98.575 118.87 98.405 118.7 98.32 118.61 98.234 118.44 98.064 118.27 98.064 118.19 97.979 118.1 97.894 118.1 97.809 118.1 97.809 118.02 97.724 118.02 97.639 117.93 97.554 117.85 97.468 117.76 97.383 117.68 97.298 117.51 97.213 117.42 97.128 117.25 97.043 117.25 96.958 117.17 96.788 117.08 96.703 117 96.617 116.91 96.532 116.83 96.447 116.66 96.362 116.66 96.362 116.57" color="rgb(0, 0, 0)" fill="none" fill-rule="nonzero" marker-end="" marker-mid="" marker-start="" opacity="0" stroke="#fff" stroke-dashoffset=""/>
<polyline class="" points="107.51 111.29 108.02 110.1 108.11 109.68 108.19 109.59 108.28 108.91 108.28 108.23 108.36 107.46 108.28 106.7 108.19 106.1 108.02 105.51 107.85 105.25 107.68 105 107.6 105 107.43 105.25 106.92 105.76 106.57 106.53 106.15 107.38 105.81 108.4 105.64 109.42 105.47 110.95 105.47 111.12 105.47 111.38 105.47 111.72 105.55 111.63 105.64 111.21 106.06 110.36 106.57 109.17 107.17 107.89 107.85 106.44 108.36 105.34 108.62 104.66 108.7 104.49 108.7 104.4 108.7 104.49 108.45 104.74 107.94 105.51 107 106.7 105.98 107.89 104.87 109.17 104.02 110.27 103.68 110.87 103.68 111.04 103.68 110.95 103.68 110.87 104.02 110.27 104.28 109.85" color="rgb(0, 0, 0)" fill="#dadada" fill-rule="nonzero" marker-end="" marker-mid="" marker-start="" opacity="0" stroke="#fff" stroke-dashoffset=""/>
<polyline class="" points="104.62 109.72 104.63 109.71 104.64 109.69 104.66 109.65 104.69 109.62 104.7 109.6 104.7 109.59 104.7 109.59 104.7 109.6 104.67 109.63 104.64 109.67 104.62 109.68" color="rgb(0, 0, 0)" fill="#dadada" fill-rule="nonzero" marker-end="" marker-mid="" marker-start="" opacity="0" stroke="#fff" stroke-dashoffset=""/>
<polyline points="105.21 108.57 107 106.53 107.17 106.36 107.68 105.68 108.19 105.25 108.28 105 107.94 105.51 107.17 106.19 106.15 106.95 105.13 107.81 104.53 108.32 104.11 108.66 103.94 108.66 104.02 108.66 104.11 108.66 104.36 108.4 104.79 107.89 105.38 107.04 106.32 106.19 107 105.51 107.34 105.34 107.34 105.42 106.92 106.02 106.32 106.95 105.3 108.15 104.36 109.17 103.94 109.59 103.94 109.68 103.94 109.59 104.19 109.34 104.79 108.49 105.38 107.63 106.32 106.61 107.17 106.02 107.51 105.76 107.6 105.76 107.6 105.85 107.51 106.36 107.26 107.21 106.75 108.32 106.23 109.25 105.64 109.85 105.55 110.1 105.55 110.02 105.64 110.02 105.81 109.59 106.23 108.74 106.75 107.63 107.43 106.61 107.77 105.93 108.02 105.68 107.85 105.85 107.51 106.36 107.17 107.12 106.57 108.15 105.98 109 105.64 109.59 105.55 109.59 105.64 109.59 105.72 109.59 105.98 109.08 106.49 108.15 107.09 107.12 107.77 106.1 108.28 105.34 108.7 105.08 108.7 105.17 108.36 105.59 108.02 106.1 107.43 106.87 106.66 107.63 105.81 108.23" color="rgb(0, 0, 0)" fill="none" fill-rule="nonzero" marker-end="" marker-mid="" marker-start="" opacity="0" stroke="#fff" stroke-dashoffset=""/>
<polyline points="106.83 107.38 108.96 105.25 109.13 105.08 109.3 104.91 110.83 103.72 111.85 102.78 112.62 102.02 112.87 101.68 112.62 102.02 111.85 102.87 110.83 103.98 109.81 105.25 108.79 106.36 108.11 107.21 107.51 107.81 107.26 107.89 107.26 107.89 107.34 107.55 107.6 106.78 108.11 106.02 108.53 105.08 109.13 104.23 109.38 103.63 109.47 103.63 109.38 103.63 109.38 103.63 108.96 104.06 108.28 104.66 107.17 105.51 106.06 106.36 105.38 106.95 105.21 107.12 105.3 107.12 105.47 106.95 106.15 106.19 107.26 105.17 107.34 105.08" color="rgb(0, 0, 0)" fill="none" fill-rule="nonzero" marker-end="" marker-mid="" marker-start="" opacity="0" stroke="#fff" stroke-dashoffset=""/>
<polyline class="" points="109.3 111.87 109.32 111.85 109.32 111.85 109.32 111.82 109.33 111.78 109.35 111.73 109.38 111.67 109.4 111.62 109.41 111.6 109.41 111.6 109.41 111.61 109.39 111.65 109.34 111.74 109.26 111.84 109.18 111.93 109.1 111.99 109.07 112.02 109.1 111.99 109.15 111.93 109.19 111.88 109.23 111.87 109.25 111.85 109.26 111.84 109.26 111.84 109.26 111.84 109.27 111.82 109.28 111.81 109.3 111.78 109.32 111.75 109.32 111.74 109.32 111.74 109.29 111.79 109.26 111.87 109.21 111.95 109.16 112.02 109.15 112.05 109.15 112.05 109.16 112.04 109.19 111.98 109.24 111.9 109.31 111.82 109.38 111.73 109.43 111.67 109.46 111.62 109.47 111.62 109.47 111.62 109.46 111.65 109.43 111.72 109.38 111.8 109.3 111.88 109.2 111.98 109.1 112.04 109.04 112.06 109.04 112.05 109.05 112.04 109.1 111.95 109.16 111.84 109.24 111.74 109.3 111.65 109.34 111.59 109.35 111.57 109.35 111.57 109.33 111.59 109.29 111.63 109.23 111.69 109.15 111.75 109.1 111.79 109.09 111.79 109.1 111.77 109.13 111.72 109.18 111.66 109.25 111.59 109.32 111.53 109.35 111.5 109.36 111.49 109.36 111.5 109.34 111.53 109.3 111.59 109.26 111.65 109.19 111.72 109.13 111.77 109.1 111.79 109.1 111.79 109.1 111.78" color="rgb(0, 0, 0)" fill="none" fill-rule="nonzero" marker-end="" marker-mid="" marker-start="" stroke="#fff" stroke-dashoffset=""/>
<polyline points="106.79 106.88 106.79 107.13 106.79 107.22 106.79 107.3 106.88 107.47 106.96 107.73 106.96 107.81 107.05 107.9 107.05 107.98 107.13 107.9 107.22 107.64 107.3 106.96 107.47 106.11 107.47 105.6" color="rgb(0, 0, 0)" fill="none" fill-rule="nonzero" marker-end="" marker-mid="" marker-start="" opacity="100" stroke="#fff" stroke-dashoffset=""/>
<polyline points="109.6 109.26 109.77 109.17 109.77 109.09 109.86 109.09 109.94 109 110.03 108.92 110.11 108.83 110.2 108.75 110.28 108.66 110.28 108.58 110.37 108.49 110.45 108.49 110.45 108.41 110.54 108.32 110.54 108.24 110.62 108.24 110.62 108.15 110.71 108.07 110.71 107.98 110.79 107.98 110.79 107.9 110.88 107.81 110.96 107.73 110.96 107.64 111.05 107.64 111.05 107.56 111.13 107.47 111.13 107.39 111.22 107.39 111.22 107.3 111.22 107.22 111.3 107.22 111.3 107.13 111.39 107.05 111.39 106.96 111.39 106.88 111.47 106.79 111.47 106.71 111.56 106.71 111.56 106.62 111.56 106.71 111.56 106.79 111.56 106.96 111.56 107.13 111.47 107.39 111.47 107.56 111.39 107.73 111.3 107.9 111.3 107.98 111.22 108.15 111.22 108.24 111.13 108.32 111.05 108.41 111.05 108.49 110.96 108.58 110.96 108.66 110.88 108.66 110.79 108.75 110.79 108.83 110.71 108.83 110.71 108.92 110.62 108.92 110.62 109 110.62 109.09 110.54 109.09 110.54 109.17 110.54 109.26 110.54 109.34 110.45 109.34 110.45 109.43 110.45 109.51 110.45 109.6 110.45 109.69 110.45 109.77 110.37 109.77 110.37 109.86 110.37 109.94 110.37 110.03 110.28 110.11 110.28 110.2 110.28 110.28 110.2 110.37 110.2 110.45" color="rgb(0, 0, 0)" fill="none" fill-rule="nonzero" marker-end="" marker-mid="" marker-start="" opacity="100" stroke="#fff" stroke-dashoffset=""/>
<polyline points="100.41 120.41 100.32 120.41 100.24 120.41 100.15 120.41 100.15 120.32 100.07 120.32 99.898 120.24 99.813 120.07 99.643 120.07 99.472 119.9 99.387 119.81 99.302 119.73 99.217 119.64 99.132 119.64 99.047 119.56 98.962 119.47 98.877 119.39 98.791 119.3 98.706 119.22 98.706 119.13 98.621 119.05 98.536 119.05 98.536 118.96 98.451 118.88 98.451 118.79 98.366 118.79 98.366 118.71 98.281 118.62 98.281 118.54 98.196 118.54 98.196 118.45 98.111 118.45 98.111 118.37 98.026 118.28 97.94 118.28 97.94 118.2 97.855 118.2 97.77 118.11 97.77 118.03 97.685 118.03 97.685 117.94 97.6 117.94 97.515 117.94 97.515 117.86 97.43 117.86 97.43 117.77 97.345 117.77 97.345 117.69 97.26 117.6 97.174 117.6 97.174 117.51 97.089 117.43 97.004 117.34 96.919 117.26 96.919 117.17 96.834 117.17 96.834 117.09 96.749 117.09 96.664 117 96.579 116.83 96.494 116.75 96.409 116.66" color="rgb(0, 0, 0)" fill="none" fill-rule="nonzero" marker-end="" marker-mid="" marker-start="" opacity="100" stroke="#fff" stroke-dashoffset=""/>
</g>
</svg>
