<svg xmlns="http://www.w3.org/2000/svg" id="Layer_1" x="0" y="0" version="1.1" viewBox="0 0 52 52" xml:space="preserve"><path fill="#fc0000" d="M49.167 3.318c-.56 1.67-1.24 7.44-1.46 9.52-.81 9.43-3.17 15.13-3.27 15.37-1.13 2.76-2.6 5.35-4.38 7.67-4.28 5.58-10.71 8.92-17.21 8.92-.37 0-.74-.01-1.12-.03-7.34-.42-10.87-4.68-11.02-4.86-.05-.06-.1-.13-.15-.19-2.5 2.97-4.61 6.23-5.83 9.62-.14.41-.53.66-.94.66-.11 0-.22-.02-.34-.06a.994.994 0 0 1-.6-1.28c1.37-3.8 3.72-7.38 6.47-10.62-6.81-10.18-.75-19.37-.68-19.46 1.18-1.96 2.83-3.86 4.87-5.58 4.66-3.95 10.73-6.3 17.08-6.62 8.88-.44 15.88-3.64 17.19-4.28.36-.17.79-.11 1.1.15.3.27.41.69.29 1.07z"/></svg>