<?xml version="1.0" encoding="UTF-8"?>
<svg version="1.1" viewBox="0 0 288 288" xmlns="http://www.w3.org/2000/svg">
<g>
<svg width="288" height="288" enable-background="new 0 0 47.5 47.5" viewBox="0 0 47.5 47.5" xmlns="http://www.w3.org/2000/svg">
<defs>
<clipPath id="a">
<path class="color000 svgShape" d="m0 38h38v-38h-38v38z"/>
</clipPath>
</defs>
<g class="color000 svgShape" transform="matrix(1.25 0 0 -1.25 0 47.5)" clip-path="url(#a)" fill="#889fa6">
<path class="color8899a6 svgShape" transform="translate(16 28)" d="m0 0 6 6s6 6 12 0 0-12 0-12l-8-8s-6-6-12 0c-1.125 1.125-1.822 2.62-1.822 2.62l3.353 3.348s-0.135-1.364 1.469-2.968c0 0 3-3 6 0l8 8s3 3 0 6-6 0-6 0l-3.729-3.729s-1.854 1.521-5.646 0.354l0.375 0.375z"/>
<path class="color8899a6 svgShape" transform="translate(21.845 10)" d="m0 0-6-6s-6-6-12 0 0 12 0 12l8 8s6 6 12 0c1.125-1.125 1.822-2.62 1.822-2.62l-3.353-3.349s0.135 1.365-1.469 2.969c0 0-3 3-6 0l-8-8s-3-3 0-6 6 0 6 0l3.729 3.729s1.854-1.52 5.646-0.354l-0.375-0.375z"/>
</g>
</svg>
</g>
</svg>
