<?xml version="1.0" encoding="UTF-8"?>
<svg viewBox="0 0 64 64" xmlns="http://www.w3.org/2000/svg">
<g fill-rule="evenodd">
<path d="m48.548 33.078c0-10.519-8.525-19.047-19.041-19.047-4.8334 0-9.2306 1.8149-12.588 4.7829h-0.0015749c-0.53547 0.4742-1.0426 0.97832-1.5229 1.5092-9.166 8.4772-5.8193 21.14-10.324 25.622-5.4791 5.4525-4.8476 13.969 4.3027 15.478 20.409 3.3682 32.571-13.906 32.571-13.906 3.1136-3.3918 6.6036-9.4745 6.6036-14.44" fill="#FAD841"/>
<path d="m46.964 25.482c0 0.063016 0.0094495 0.12288 0.0094495 0.1859 0 5.7912-4.0711 12.885-7.7013 16.839 0 0-13.113 18.605-35.27 16.559 1.2662 1.1296 3.038 1.974 5.372 2.3584 20.409 3.3666 32.571-13.906 32.571-13.906 3.112-3.3918 6.6036-9.4745 6.6036-14.44 0-2.7018-0.57012-5.2681-1.5844-7.5966" fill="#FAAC28"/>
<path d="m29.508 15.607c-4.2444 0-8.3439 1.5581-11.546 4.3875-0.48192 0.42693-0.95282 0.89168-1.3985 1.3864-5.1059 4.7294-6.0855 10.73-6.9517 16.022-0.65359 4.0031-1.219 7.4611-3.4302 9.6604-2.4994 2.4891-3.5782 5.777-2.7482 8.3733 0.74336 2.3237 2.9435 3.8975 6.1973 4.4348 19.22 3.1744 30.911-13.095 31.027-13.26 0.037798-0.055139 0.080321-0.1087 0.12757-0.15912 3.0742-3.3493 6.1878-9.0192 6.1878-13.374 0-9.6336-7.8352-17.471-17.466-17.471m-14.814 47.836c-1.7844 0-3.6428-0.14494-5.5752-0.46474-4.4791-0.73729-7.5643-3.0752-8.6841-6.5789-1.208-3.7715 0.14489-8.2031 3.5262-11.57 1.4867-1.4809 1.9765-4.471 2.5419-7.9353 0.90085-5.506 2.0206-12.361 7.8226-17.726 0.42523-0.4805 0.98117-1.0303 1.5497-1.5329 3.7782-3.3399 8.6195-5.1783 13.632-5.1783 11.368 0 20.616 9.2508 20.616 20.622 0 5.3658-3.5908 11.74-6.9532 15.434-0.9859 1.3643-11.226 14.929-28.476 14.93" fill="#454849"/>
<path d="m38.114 17.304c-0.43625 0-0.87093-0.1796-1.1812-0.53406-0.57642-0.65222-0.51342-1.6479 0.13859-2.2229 5.035-4.4442 5.7973-13.014 5.8036-13.099 0.070871-0.86805 0.8473-1.5092 1.6978-1.4415 0.8662 0.069318 1.5119 0.82866 1.4426 1.6951-0.033073 0.40173-0.8599 9.914-6.8603 15.209-0.29923 0.26467-0.67091 0.39385-1.041 0.39385" fill="#454849"/>
<path d="m62.067 13.747c-14.751-14.062-20.861 0.50255-20.861 0.50255s6.8036 14.253 20.861-0.50255" fill="#3BB777"/>
<path d="m62.067 13.747-20.861 0.50255s6.8036 14.253 20.861-0.50255" fill="#229857"/>
<path d="m42.986 14.204c0.78903 1.2729 2.8632 4.0661 6.1296 4.575 3.1561 0.50255 6.7422-1.18 10.678-4.9767-4.1231-3.6124-7.8005-5.1122-10.925-4.4537-3.249 0.679-5.1626 3.5462-5.8823 4.8554m7.2226 7.8108c-0.5402 0-1.0772-0.04096-1.6096-0.12603-5.8776-0.93736-8.6982-6.7144-8.8148-6.9601-0.19371-0.40488-0.20474-0.87435-0.031498-1.2871 0.10552-0.25206 2.6443-6.1598 8.4715-7.3776 4.5027-0.94524 9.5266 1.1926 14.93 6.3426 0.30238 0.2883 0.4772 0.6853 0.48665 1.1028 0.011024 0.41748-0.14647 0.82236-0.4331 1.1233-4.5468 4.7735-8.9109 7.1823-12.999 7.1823" fill="#454849"/>
<path d="m13.692 35.951c-0.056697 0-0.11497-0.0047262-0.17324-0.012603-0.64571-0.094524-1.0914-0.69475-0.99692-1.3407 0.047247-0.32138 1.2064-7.9195 5.6224-11.387 0.51342-0.40173 1.2552-0.31193 1.6584 0.20008s0.31341 1.2556-0.20001 1.6589c-3.6806 2.8924-4.7326 9.8006-4.7436 9.8715-0.085045 0.58605-0.59059 1.0098-1.167 1.0098m9.8276-15.527c0.65044 0.55139 0.73233 1.5266 0.17954 2.1772-0.55122 0.65222-1.5261 0.73256-2.1765 0.18117-0.65044-0.55139-0.73233-1.5266-0.17954-2.1788 0.55122-0.65064 1.5261-0.73099 2.1765-0.1796" fill="#FEFEFE"/>
</g>
</svg>
