<?xml version="1.0" encoding="UTF-8"?>
<svg version="1.1" viewBox="0 0 288 288" xmlns="http://www.w3.org/2000/svg">
<g>
<svg width="288" height="288" data-name="Layer 1" viewBox="0 0 64 64" xmlns="http://www.w3.org/2000/svg">
<path class="color000 svgShape" d="m58.133 2.4785a3.0237 3.0237 0 0 0-2.2226-0.97852h-47.82a3.02 3.02 0 0 0-2.997 3.231 26.966 26.966 0 0 0 12.488 20.58 3.5004 3.5004 0 0 0 6.144 2.8813 26.323 26.323 0 0 0 4.275 0.99646v2.3113c-1.7576 0.01455-4.1077-0.32565-5.2529 1.3815l-6.2598 8.1591a3.5388 3.5388 0 0 0 0.13769 4.4546l12.552 14.46a3.5516 3.5516 0 0 0 5.3281 0.00969l12.559-14.468a3.5432 3.5432 0 0 0 0.13965-4.456l-6.252-8.1489c-1.1274-1.61-3.233-1.413-4.9512-1.3921v-2.3114a26.309 26.309 0 0 0 4.2767-0.997 3.4991 3.4991 0 0 0 6.1423-2.8808 26.967 26.967 0 0 0 12.487-20.577 2.9723 2.9723 0 0 0-0.77349-2.2554zm-37.133 25.021a1.5002 1.5002 0 0 1 6e-5 -3 1.5002 1.5002 0 0 1-6e-5 3zm16.479 6-5.6288 8.0456-5.6281-8.0456zm-12.816 10.786 4.4667 12.564-10.906-12.564zm20.804 0-10.898 12.555 4.4586-12.555zm-13.619 14.241-5.0626-14.241h10.12zm-7.5846-24.336 5.6632 8.0956h-11.868c-0.0035-0.02056 6.1954-8.0752 6.2044-8.0956zm21.354 8.0687c0.014 0.02685-11.844 0.02685-11.844 0.02685l5.6594-8.0892zm-15.617-10.759v-5a1.001 1.001 0 0 1 1-1h2a1.001 1.001 0 0 1 1 1v5zm13-4a1.5002 1.5002 0 0 1 7e-5 -3 1.5002 1.5002 0 0 1-7e-5 3zm13.913-22.931a24.972 24.972 0 0 1-11.42 18.976 3.5159 3.5159 0 0 0-5.9766 2.8022 24.323 24.323 0 0 1-3.5166 0.82959 3.1246 3.1246 0 0 0-3.0001-3.6763h-1.9999a3.1247 3.1247 0 0 0-3 3.6763 24.322 24.322 0 0 1-3.5166-0.82959 3.5158 3.5158 0 0 0-5.9766-2.8022 24.976 24.976 0 0 1-11.421-18.98 1.0063 1.0063 0 0 1 1.0039-1.0644h47.82a1.0049 1.0049 0 0 1 1.0029 1.0688z" fill="#6cf"/>
</svg>
</g>
</svg>
