<?xml version="1.0" encoding="UTF-8"?>
<svg version="1.1" viewBox="0 0 288 288" xmlns="http://www.w3.org/2000/svg">
    <g>
        <svg width="288" height="288" enable-background="new 0 0 512 512" viewBox="0 0 512 512" xmlns="http://www.w3.org/2000/svg">
            <path class="color000 svgShape" d="m256 512c-141.38 0-256-114.62-256-256s114.62-256 256-256 256 114.62 256 256-114.62 256-256 256zm0-448c-106.03 0-192 85.969-192 192s85.969 192 192 192c106.03 0 192-85.969 192-192s-85.969-192-192-192zm0 320c-70.688 0-128-57.312-128-128s57.312-128 128-128 128 57.312 128 128-57.312 128-128 128z" fill="#6b6b6b"/>
        </svg>
    </g>
</svg>
