<?xml version="1.0" encoding="UTF-8"?>
<svg version="1.1" viewBox="0 0 288 288" xmlns="http://www.w3.org/2000/svg">
<g>
<svg width="288" height="288" viewBox="0 0 24 24" xmlns="http://www.w3.org/2000/svg">
<path class="color000 svgShape" d="m15.71 8.29a1 1 0 0 0-1.42 0l-2.29 2.3-2.29-2.3a1 1 0 0 0-1.42 1.42l2.3 2.29-2.3 2.29a1 1 0 0 0 0 1.42 1 1 0 0 0 1.42 0l2.29-2.3 2.29 2.3a1 1 0 0 0 1.42 0 1 1 0 0 0 0-1.42l-2.3-2.29 2.3-2.29a1 1 0 0 0 0-1.42zm3.36-3.36a10 10 0 1 0-14.14 14.14 10 10 0 1 0 14.14-14.14zm-1.41 12.73a8 8 0 1 1 2.34-5.66 7.95 7.95 0 0 1-2.34 5.66z" fill="#b2b2b2"/>
</svg>
</g>
</svg>
