<?xml version="1.0" encoding="UTF-8"?>
<svg version="1.1" viewBox="0 0 288 288" xmlns="http://www.w3.org/2000/svg">
<g>
<svg width="288" height="288" viewBox="0 0 24 24" xmlns="http://www.w3.org/2000/svg">
<g class="color000 svgShape" fill="#52cc99" data-name="Layer 2">
<g class="color000 svgShape" fill="#52cc99" data-name="checkmark-circle-2">
<rect class="color000 svgShape" width="24" height="24" opacity="0"/>
<path class="color000 svgShape" d="M12 2a10 10 0 1 0 10 10A10 10 0 0 0 12 2zm0 18a8 8 0 1 1 8-8 8 8 0 0 1-8 8z"/>
<path class="color000 svgShape" d="M14.7 8.39l-3.78 5-1.63-2.11a1 1 0 0 0-1.58 1.23l2.43 3.11a1 1 0 0 0 .79.38 1 1 0 0 0 .79-.39l4.57-6a1 1 0 1 0-1.6-1.22z"/>
</g>
</g>
</svg>
</g>
</svg>
