<svg xmlns="http://www.w3.org/2000/svg" data-name="Layer 2" viewBox="0 0 64 64"><rect width="6" height="8" x="29" y="49" fill="#eacc4b" rx="1"/><path fill="#e2b442" d="M34,49H31a1,1,0,0,1,1,1v6a1,1,0,0,1-1,1h3a1,1,0,0,0,1-1V50A1,1,0,0,0,34,49Z"/><rect width="42" height="6" x="11" y="55" fill="#405459" rx="1"/><path fill="#334549" d="M52,55H49v2a1,1,0,0,1-1,1H11v2a1,1,0,0,0,1,1H52a1,1,0,0,0,1-1V56A1,1,0,0,0,52,55Z"/><path fill="#3d6fc1" d="M47,11H39V10a7,7,0,0,0-14,0v1H17a5.0059,5.0059,0,0,0-5,5v6a1,1,0,0,0,.7017.9546l5.8432,1.8262,5.4776,25.43A1,1,0,0,0,25,51H39a1,1,0,0,0,.9849-.8257L44.4741,24.8l6.7866-1.8345A.9994.9994,0,0,0,52,22V16A5.0059,5.0059,0,0,0,47,11Z"/><path fill="#2f5b9b" d="M35 10v1h4V10a7.0027 7.0027 0 0 0-9-6.7052A7.01 7.01 0 0 1 35 10zM47 11H43a5.0059 5.0059 0 0 1 5 5v1a.9994.9994 0 0 1-.7393.9653L40.4741 19.8 35.9849 45.1743A1 1 0 0 1 35 46H23.1155l.907 4.21A1 1 0 0 0 25 51H39a1 1 0 0 0 .9849-.8257L44.4741 24.8l6.7866-1.8345A.9994.9994 0 0 0 52 22V16A5.0059 5.0059 0 0 0 47 11z"/><path fill="#edeceb" d="M29 30H26a1 1 0 0 1-.707-.293l-1-1A1 1 0 0 1 24 28V17a1 1 0 0 1 .293-.707l1-1A1 1 0 0 1 26 15h3a1 1 0 0 1 .707.293l1 1A1 1 0 0 1 31 17V28a1 1 0 0 1-.293.707l-1 1A1 1 0 0 1 29 30zm-2.5859-2h2.1718L29 27.5859V17.4141L28.5859 17H26.4141L26 17.4141V27.5859zM38 30H35a1 1 0 0 1-.707-.293l-1-1A1 1 0 0 1 33 28V17a1 1 0 0 1 .293-.707l1-1A1 1 0 0 1 35 15h3a1 1 0 0 1 .707.293l1 1A1 1 0 0 1 40 17V28a1 1 0 0 1-.293.707l-1 1A1 1 0 0 1 38 30zm-2.5859-2h2.1718L38 27.5859V17.4141L37.5859 17H35.4141L35 17.4141V27.5859z"/></svg>