<?xml version="1.0" encoding="UTF-8"?>
<svg version="1.1" viewBox="0 0 288 288" xmlns="http://www.w3.org/2000/svg">
    <g>
        <svg width="288" height="288" enable-background="new 0 0 512 512" viewBox="0 0 512 512" xmlns="http://www.w3.org/2000/svg">
            <path class="coloredbc40 svgShape" d="m118.53 318.19c-28.834-45.667-26.152-91.233 5.608-138.19 1.616 13.384-0.031 34.004 16.703 47.261 15.331-11.233 3.932-44.731 2.713-59.81-2.347-28.185 11.735-56.774 33.528-70.512-2.53 18.039-4.206 35.496 12.832 52.017 4.176-21.176 1.372-53.156 45.445-82.555 41.544-27.729 21.306-55.585 25.878-66.388 76.031 68.566-24.918 73.155 60.899 153.6 1.768-19.532-7.437-40.152 18.867-52.043 3.048 34.333 28.255 59.304 49.073 86.426 55.059 71.833 9.879 177.44-102.46 180.01-13.925-2.714-125.62 19.112-169.09-49.813z" fill="#ace1fe"/>
            <path class="colore2887d svgShape" d="m408.1 318.06c0 90.744-152.25 193.93-152.25 193.93s-152.3-103.18-152.3-193.93c0-46.774 37.925-84.698 84.698-84.698 27.591 0 52.105 13.191 67.605 33.637 15.445-20.446 39.958-33.637 67.55-33.637 46.773 0 84.698 37.925 84.698 84.698z" fill="#6e0024"/>
        </svg>
    </g>
</svg>
